<svg width="15" height="16" viewBox="0 0 15 16" fill="none" xmlns="http://www.w3.org/2000/svg">
<g opacity="0.3" clip-path="url(#clip0_230_5108)">
<path d="M11.6669 7.4147L4.99166 0.739632C4.83727 0.585121 4.63118 0.5 4.41142 0.5C4.19167 0.5 3.98557 0.585121 3.83118 0.739632L3.3396 1.23109C3.01973 1.55133 3.01973 2.07182 3.3396 2.39157L8.94492 7.99689L3.33338 13.6084C3.17899 13.7629 3.09375 13.9689 3.09375 14.1885C3.09375 14.4084 3.17899 14.6144 3.33338 14.769L3.82496 15.2604C3.97947 15.4149 4.18545 15.5 4.4052 15.5C4.62496 15.5 4.83105 15.4149 4.98544 15.2604L11.6669 8.5792C11.8216 8.4242 11.9066 8.21725 11.9061 7.99726C11.9066 7.7764 11.8216 7.56958 11.6669 7.4147Z" fill="#4B3E31"/>
</g>
<defs>
<clipPath id="clip0_230_5108">
<rect width="15" height="15" fill="white" transform="translate(0 0.5)"/>
</clipPath>
</defs>
</svg>
