<svg width="9" height="16" viewBox="0 0 9 16" fill="none" xmlns="http://www.w3.org/2000/svg">
<path d="M0.333148 7.4147L7.00834 0.739632C7.16273 0.585121 7.36882 0.5 7.58858 0.5C7.80833 0.5 8.01443 0.585121 8.16882 0.739632L8.6604 1.23109C8.98027 1.55133 8.98027 2.07182 8.6604 2.39157L3.05508 7.99689L8.66662 13.6084C8.82101 13.7629 8.90625 13.9689 8.90625 14.1885C8.90625 14.4084 8.82101 14.6144 8.66662 14.769L8.17504 15.2604C8.02053 15.4149 7.81455 15.5 7.5948 15.5C7.37504 15.5 7.16895 15.4149 7.01456 15.2604L0.333148 8.5792C0.178393 8.4242 0.0933943 8.21725 0.0938826 7.99726C0.0933943 7.7764 0.178393 7.56958 0.333148 7.4147Z" fill="#4B3E31"/>
</svg>
