<svg width="29" height="14" viewBox="0 0 29 14" fill="none" xmlns="http://www.w3.org/2000/svg">
<path d="M28.6677 6.2579C28.6674 6.25758 28.6671 6.25722 28.6667 6.2569L22.7475 0.805287C22.3041 0.396888 21.5869 0.398407 21.1455 0.808851C20.7041 1.21924 20.7058 1.88303 21.1493 2.29148L25.1234 5.95161H1.13281C0.50716 5.95161 0 6.42098 0 7C0 7.57902 0.50716 8.04839 1.13281 8.04839H25.1233L21.1493 11.7085C20.7059 12.117 20.7042 12.7808 21.1455 13.1911C21.5869 13.6016 22.3042 13.6031 22.7476 13.1947L28.6668 7.7431C28.6671 7.74278 28.6674 7.74242 28.6678 7.7421C29.1115 7.33229 29.11 6.66635 28.6677 6.2579Z" fill="#111111"/>
</svg>
