<svg width="29" height="13" viewBox="0 0 29 13" fill="none" xmlns="http://www.w3.org/2000/svg">
<path d="M28.6677 5.7579C28.6674 5.75758 28.6671 5.75722 28.6667 5.7569L22.7475 0.305287C22.3041 -0.103112 21.5869 -0.101593 21.1455 0.308851C20.7041 0.719243 20.7058 1.38303 21.1493 1.79148L25.1234 5.45161H1.13281C0.50716 5.45161 0 5.92098 0 6.5C0 7.07902 0.50716 7.54839 1.13281 7.54839H25.1233L21.1493 11.2085C20.7059 11.617 20.7042 12.2808 21.1455 12.6911C21.5869 13.1016 22.3042 13.1031 22.7476 12.6947L28.6668 7.2431C28.6671 7.24278 28.6674 7.24242 28.6678 7.2421C29.1115 6.83229 29.11 6.16635 28.6677 5.7579Z" fill="#4B3E31"/>
</svg>
