<svg width="60" height="22" viewBox="0 0 60 22" fill="none" xmlns="http://www.w3.org/2000/svg">
<path d="M58.4615 12.2246H1.23077C0.55 12.2246 0 11.6746 0 10.9938C0 10.313 0.55 9.76303 1.23077 9.76303H55.4885L48.0192 2.2938C47.5385 1.81303 47.5385 1.03226 48.0192 0.551495C48.5 0.0707257 49.2808 0.0707257 49.7615 0.551495L59.3346 10.1246C59.6885 10.4784 59.7923 11.0053 59.6 11.4669C59.4077 11.9246 58.9577 12.2246 58.4615 12.2246Z" fill="#4B3E31"/>
<path d="M48.8769 21.8093C48.5615 21.8093 48.2461 21.6901 48.0077 21.4478C47.5269 20.967 47.5269 20.1862 48.0077 19.7054L57.5923 10.1208C58.0731 9.64006 58.8538 9.64006 59.3346 10.1208C59.8154 10.6016 59.8154 11.3824 59.3346 11.8631L49.75 21.4478C49.5077 21.6901 49.1923 21.8093 48.8769 21.8093Z" fill="#4B3E31"/>
</svg>
