<svg width="28" height="25" viewBox="0 0 28 25" fill="none" xmlns="http://www.w3.org/2000/svg">
<path d="M5.28016 16.2862H8.44826C9.03151 16.2862 9.50429 15.8134 9.50429 15.2302C9.50429 14.6469 9.03151 14.1742 8.44826 14.1742H5.28016C4.69691 14.1742 4.22412 14.6469 4.22412 15.2302C4.22412 15.8134 4.69691 16.2862 5.28016 16.2862Z" fill="#4B3E31"/>
<path d="M5.28016 12.0621H8.44826C9.03151 12.0621 9.50429 11.5893 9.50429 11.006C9.50429 10.4228 9.03151 9.95001 8.44826 9.95001H5.28016C4.69691 9.95001 4.22412 10.4228 4.22412 11.006C4.22412 11.5893 4.69691 12.0621 5.28016 12.0621Z" fill="#4B3E31"/>
<path d="M11.4812 15.2302C11.4812 15.8134 11.954 16.2862 12.5372 16.2862C14.7455 16.2862 16.8215 15.4263 18.383 13.8648L26.1058 6.14132C27.3438 4.90327 27.3441 2.89918 26.1058 1.66093C24.8706 0.425686 22.8607 0.425686 21.6254 1.66093L13.9026 9.38445C12.3412 10.946 11.4812 13.022 11.4812 15.2302ZM23.1189 3.15443C23.5306 2.74268 24.2006 2.74268 24.6123 3.15443C25.025 3.56702 25.0252 4.23512 24.6123 4.64787L16.8895 12.3714C16.0067 13.2542 14.9029 13.8358 13.7028 14.0646C13.9316 12.8646 14.5132 11.7608 15.396 10.8779L23.1189 3.15443Z" fill="#4B3E31"/>
<path d="M3.1681 24.7345C3.9483 24.7345 4.69819 24.4482 5.27975 23.9282L6.73956 22.6224H17.5302C20.4417 22.6224 22.8104 20.2537 22.8104 17.3423V14.9734C22.8104 14.3902 22.3376 13.9174 21.7543 13.9174C21.1711 13.9174 20.6983 14.3902 20.6983 14.9734V17.3423C20.6983 19.0891 19.2771 20.5104 17.5302 20.5104H6.33621C6.07642 20.5104 5.82577 20.6061 5.63215 20.7793L3.87185 22.3539C3.67812 22.5271 3.42821 22.6224 3.1681 22.6224C2.58581 22.6224 2.11207 22.1487 2.11207 21.5664V8.89398C2.11207 7.14708 3.53328 5.72587 5.28017 5.72587H14.1376C14.7209 5.72587 15.1936 5.25309 15.1936 4.66984C15.1936 4.08659 14.7209 3.6138 14.1376 3.6138H5.28017C2.36863 3.6138 0 5.98249 0 8.89398V21.5664C0 23.3133 1.42121 24.7345 3.1681 24.7345Z" fill="#4B3E31"/>
</svg>
