<svg width="60" height="60" viewBox="0 0 60 60" fill="none" xmlns="http://www.w3.org/2000/svg">
<g clip-path="url(#clip0_1116_712)">
<path d="M15.2474 15.956L41.6554 4.63426L30.7208 0.142253C30.259 -0.0474178 29.7412 -0.0474178 29.2793 0.142253L3.01636 10.9313L15.2474 15.956Z" fill="#4B3E31"/>
<path d="M46.57 6.65332L20.1541 17.9717L29.9999 22.0166L56.9837 10.9314L46.57 6.65332Z" fill="#4B3E31"/>
<path d="M28.1031 25.3384L17.4167 20.9484V29.2605C17.4167 30.3079 16.5674 31.1572 15.52 31.1572C14.4725 31.1572 13.6233 30.3079 13.6233 29.2605V19.39L1.31348 14.333V47.7232C1.31348 48.4923 1.77793 49.1853 2.48944 49.4777L28.1031 60V25.3384Z" fill="#4B3E31"/>
<path d="M31.8967 25.3384V60L57.5104 49.4777C58.2219 49.1855 58.6864 48.4923 58.6864 47.7232C58.6864 46.447 58.6864 15.7301 58.6864 14.333L31.8967 25.3384Z" fill="#4B3E31"/>
</g>
<defs>
<clipPath id="clip0_1116_712">
<rect width="60" height="60" fill="white"/>
</clipPath>
</defs>
</svg>
