<svg width="25" height="26" viewBox="0 0 25 26" fill="none" xmlns="http://www.w3.org/2000/svg">
<g clip-path="url(#clip0_1006_2991)">
<path d="M24.2676 18.0117H12.5002C12.0953 18.0117 11.7678 18.3394 11.7678 18.7441C11.7678 22.3792 14.7245 25.3848 18.3594 25.3848C21.9944 25.3848 25 22.3792 25 18.7441C25 18.3394 24.6725 18.0117 24.2676 18.0117Z" fill="#4B3E31"/>
<path d="M10.6195 20.9412C10.4198 20.2414 10.3029 19.5075 10.3029 18.7439C10.3029 19.1489 9.97524 19.4764 9.5705 19.4764C9.16557 19.4764 8.83808 19.1489 8.83808 18.7439V18.0106C8.79573 18.0115 8.75797 18.0144 8.71353 18.0144C8.00628 18.0144 7.05413 17.8708 6.39686 17.2127C5.29403 16.1105 5.63583 14.1806 5.67798 13.9639C5.7352 13.6721 5.96351 13.444 6.25515 13.3868C6.25724 13.3864 6.26487 13.3852 6.26735 13.3847C5.33962 12.2656 5.63774 10.5086 5.67798 10.302C5.7352 10.01 5.96351 9.78189 6.25515 9.72467C6.37073 9.70178 6.97898 9.59955 7.68604 9.67241C7.50293 9.3184 7.37323 8.92377 7.37323 8.49023C7.37323 6.93098 8.97884 5.80793 9.16194 5.6851C9.40952 5.51916 9.73129 5.51916 9.97886 5.6851C10.162 5.80812 11.7678 6.93098 11.7678 8.49023C11.7678 8.92377 11.6379 9.3184 11.4548 9.67241C12.162 9.59955 12.7705 9.70178 12.8857 9.72467C13.1775 9.78189 13.4056 10.0102 13.4628 10.302C13.5031 10.5086 13.8012 12.2656 12.8735 13.3847C12.8759 13.3852 12.8836 13.3864 12.8857 13.3868C13.1775 13.444 13.4056 13.6723 13.4628 13.9639C13.4945 14.1268 13.6949 15.2581 13.324 16.2779L15.7701 13.8318C16.4612 13.1407 17.3809 12.7594 18.3594 12.7594C18.6079 12.7594 18.8522 12.7852 19.0903 12.8331C19.0828 9.30772 18.3418 6.30823 17.9005 4.82812H1.19133C0.748443 6.31052 0.000190735 9.33061 0.000190735 12.8848C0.000190735 16.4389 0.748443 19.459 1.19133 20.9412H10.6195Z" fill="#4B3E31"/>
<path d="M10.6726 11.4793C10.3521 11.7998 10.2928 12.4191 10.305 12.8833C10.7727 12.8948 11.3901 12.8339 11.7083 12.515C12.0266 12.1967 12.0895 11.5831 12.0768 11.111C11.6011 11.1002 10.9917 11.161 10.6726 11.4793Z" fill="#4B3E31"/>
<path d="M10.428 18.0146C10.3834 18.0146 10.3455 18.0117 10.3029 18.0107V18.7441C10.3029 18.487 10.3556 18.2436 10.437 18.0142C10.4341 18.0142 10.4309 18.0146 10.428 18.0146Z" fill="#4B3E31"/>
<path d="M1.01223 3.36328H18.0796L19.0145 1.44468C19.1284 1.21809 19.1162 0.948387 18.9825 0.732284C18.8486 0.516373 18.6134 0.384766 18.3594 0.384766H0.732612C0.478744 0.384766 0.243377 0.516373 0.109672 0.732284C-0.0240332 0.948387 -0.0362402 1.21809 0.0774378 1.44468L1.01223 3.36328Z" fill="#4B3E31"/>
<path d="M10.6726 15.1412C10.3521 15.4616 10.2928 16.0809 10.305 16.5452C10.7727 16.5488 11.3901 16.4958 11.7083 16.1769C12.0266 15.8585 12.0895 15.2447 12.0768 14.7727C11.6011 14.7685 10.9917 14.8221 10.6726 15.1412Z" fill="#4B3E31"/>
<path d="M11.194 22.4062H1.01223L0.0774378 24.3249C-0.0362402 24.5514 -0.0240332 24.8211 0.109672 25.0372C0.243377 25.2532 0.478744 25.3848 0.732612 25.3848H13.7419C12.6715 24.6327 11.7962 23.5764 11.194 22.4062Z" fill="#4B3E31"/>
<path d="M7.43255 16.1771C7.75299 16.4981 8.37593 16.5504 8.83655 16.5447C8.84952 16.0726 8.78658 15.4596 8.46824 15.1414C8.14933 14.8223 7.53708 14.7666 7.06424 14.7729C7.05127 15.245 7.11422 15.8588 7.43255 16.1771Z" fill="#4B3E31"/>
<path d="M8.83808 8.49016C8.83808 8.94353 9.23423 9.42342 9.57126 9.74252C9.91382 9.41846 10.3029 8.93991 10.3029 8.49016C10.3029 8.03659 9.90657 7.5567 9.56974 7.23779C9.22718 7.56166 8.83808 8.04021 8.83808 8.49016Z" fill="#4B3E31"/>
<path d="M8.46824 11.4793C8.14933 11.1602 7.53708 11.098 7.06424 11.111C7.05127 11.583 7.11422 12.1966 7.43255 12.515C7.75299 12.8361 8.37593 12.8947 8.83655 12.8825C8.84952 12.4104 8.78658 11.7976 8.46824 11.4793Z" fill="#4B3E31"/>
<path d="M16.806 14.8673L15.1264 16.5468H21.5923L19.9129 14.8673C19.0561 14.0104 17.6628 14.0104 16.806 14.8673Z" fill="#4B3E31"/>
</g>
<defs>
<clipPath id="clip0_1006_2991">
<rect width="25" height="25" fill="white" transform="translate(0 0.384766)"/>
</clipPath>
</defs>
</svg>
