<svg width="50" height="50" viewBox="0 0 50 50" fill="none" xmlns="http://www.w3.org/2000/svg">
<path d="M33.7444 32.6686C33.4542 33.1549 33.3008 33.7111 33.3008 34.2773C33.3008 35.6235 34.396 36.7187 35.7422 36.7187C37.0884 36.7187 38.1836 35.6235 38.1836 34.2773C38.1836 33.7111 38.0302 33.1549 37.7399 32.6686L35.7422 29.3224L33.7444 32.6686Z" fill="#4B3E31"/>
<path d="M19.35 17.2784L23.9156 12.7128C23.1376 11.0796 23.4229 9.0623 24.7732 7.71191C26.4866 5.99854 29.2746 5.99844 30.9881 7.71191L37.8934 14.6173C39.6069 16.3308 39.6068 19.1187 37.8934 20.8321C36.5431 22.1824 34.5258 22.4678 32.8927 21.6897L28.327 26.2554L31.9803 29.9087L34.4845 25.7141C35.0529 24.7621 36.4317 24.7621 37.0001 25.7141L40.2555 31.167C40.8166 32.1069 41.1133 33.1825 41.1133 34.2773C41.1133 35.604 40.6287 36.819 39.8287 37.7571L43.682 41.6105C47.6115 37.1941 50 31.3765 50 25C50 11.1929 38.8071 0 25 0C18.6235 0 12.8058 2.38848 8.38953 6.31797L19.35 17.2784Z" fill="#4B3E31"/>
<path d="M11.653 29.1185C10.3204 30.4511 10.3204 32.6196 11.653 33.9522C12.9856 35.2848 15.1541 35.2848 16.4867 33.9522L22.7188 27.7201H13.0514L11.653 29.1185Z" fill="#4B3E31"/>
<path d="M35.8218 18.7605C36.393 18.1894 36.393 17.2601 35.8218 16.689L28.9164 9.78358C28.3452 9.21239 27.4159 9.21249 26.8448 9.78358C26.2736 10.3548 26.2736 11.284 26.8448 11.8552L33.7502 18.7605C34.3213 19.3316 35.2506 19.3316 35.8218 18.7605Z" fill="#4B3E31"/>
<path d="M15.9811 24.7904H22.7189L19.35 21.4216L15.9811 24.7904Z" fill="#4B3E31"/>
<path d="M37.3355 39.4071C36.8319 39.5638 36.2968 39.6484 35.7422 39.6484C32.7806 39.6484 30.3711 37.2389 30.3711 34.2773C30.3711 33.7291 30.4455 33.1857 30.5902 32.6618L26.2554 28.3269L18.5584 36.0239C16.0834 38.4989 12.0563 38.4988 9.58144 36.0239C7.10654 33.549 7.10645 29.5219 9.58144 27.0469L17.2784 19.35L6.31797 8.38953C2.38848 12.8058 0 18.6235 0 25C0 38.8071 11.1929 50 25 50C31.3765 50 37.1941 47.6115 41.6105 43.682L37.3355 39.4071Z" fill="#4B3E31"/>
<path d="M21.4174 19.3507L25.8042 14.9639L30.6372 19.7969L26.2504 24.1837L21.4174 19.3507Z" fill="#4B3E31"/>
</svg>
