<svg width="50" height="50" viewBox="0 0 50 50" fill="none" xmlns="http://www.w3.org/2000/svg">
<path d="M19.8294 20.6748C18.9194 20.2969 17.9938 20.0828 17.2434 19.9614C17.3647 20.7119 17.5789 21.6376 17.9567 22.5475C18.9934 25.0444 20.7221 26.2582 23.2416 26.2582H23.54V25.9598C23.5401 23.4402 22.3263 21.7115 19.8294 20.6748Z" fill="#4B3E31"/>
<path d="M26.4587 33.7753V34.0737H26.7571C30.399 34.1862 32.262 31.1111 32.7546 27.777C32.0042 27.8985 31.079 28.1126 30.1693 28.4904C27.6725 29.5271 26.4587 31.2558 26.4587 33.7753Z" fill="#4B3E31"/>
<path d="M19.8294 28.4904C18.9194 28.1125 17.9938 27.8984 17.2434 27.777C17.3647 28.5275 17.5789 29.4531 17.9567 30.3631C18.9934 32.86 20.7221 34.0738 23.2416 34.0738H23.54V33.7754C23.5401 31.2558 22.3263 29.5271 19.8294 28.4904Z" fill="#4B3E31"/>
<path d="M26.3235 14.3942C25.9472 13.4834 25.4442 12.6775 24.9994 12.061C22.9993 14.7548 22.1281 18.2559 24.7885 20.7549L24.9994 20.9659L25.21 20.7553C26.9919 18.9735 27.3561 16.8928 26.3235 14.3942Z" fill="#4B3E31"/>
<path d="M26.4587 25.9598V26.2582H26.7571C29.2766 26.2582 31.0053 25.0444 32.0421 22.5475C32.4198 21.6375 32.6341 20.7119 32.7554 19.9614C32.005 20.0828 31.0793 20.2969 30.1693 20.6748C27.6725 21.7115 26.4587 23.4402 26.4587 25.9598Z" fill="#4B3E31"/>
<path d="M43.6032 8.46023L37.7548 14.3086C37.185 14.8786 36.2609 14.8786 35.691 14.3086C35.1211 13.7387 35.1211 12.8148 35.691 12.2449L41.5394 6.39644C17.545 -13.6121 -13.6042 17.5706 6.39609 41.5398L12.2445 35.6914C12.8143 35.1214 13.7384 35.1214 14.3083 35.6914C14.8782 36.2613 14.8782 37.1852 14.3083 37.7551L8.45987 43.6036C32.4543 63.6121 63.6035 32.4294 43.6032 8.46023ZM34.3735 24.6997C35.1794 24.6997 35.8328 25.3531 35.8328 26.159C35.8328 26.2663 35.8208 28.8172 34.7735 31.3952C34.5422 31.9645 32.7394 36.9922 26.7573 36.9922H26.4589V40.227C26.3871 42.1612 23.6113 42.1597 23.5402 40.227V36.9922H23.2419C17.2588 36.9922 15.4556 31.9609 15.2257 31.3952C14.1784 28.8172 14.1663 26.2663 14.1663 26.159C14.1652 25.3031 14.8987 24.6369 15.7522 24.7016C15.5611 24.3469 15.3854 23.9728 15.2257 23.5797C14.1784 21.0016 14.1663 18.4507 14.1663 18.3434C14.1663 17.5375 14.8197 16.8841 15.6257 16.8841C15.7241 16.8841 17.8764 16.8949 20.2203 17.7035C20.0926 16.2619 20.359 14.745 21.0141 13.1929C22.0964 10.6294 23.8916 8.81699 23.9675 8.741C24.2412 8.46733 24.6124 8.31352 24.9994 8.31352C25.3865 8.31352 25.7577 8.46733 26.0314 8.741C26.1073 8.81689 27.9024 10.6294 28.9848 13.1929C29.64 14.7449 29.9063 16.2618 29.7786 17.7035C32.1225 16.8949 34.2749 16.8841 34.3733 16.8841C35.1793 16.8841 35.8326 17.5375 35.8326 18.3434C35.8326 18.4507 35.8206 21.0016 34.7733 23.5797C34.6135 23.9728 34.4378 24.3469 34.2467 24.7016C34.3172 24.7 34.3615 24.6997 34.3735 24.6997Z" fill="#4B3E31"/>
</svg>
