<svg width="50" height="50" viewBox="0 0 50 50" fill="none" xmlns="http://www.w3.org/2000/svg">
<path fill-rule="evenodd" clip-rule="evenodd" d="M25 0C31.3505 0 37.148 2.36785 41.5577 6.26883L35.5784 12.3594C34.9855 12.9633 34.9944 13.9336 35.5984 14.5265C36.2024 15.1195 37.1726 15.1105 37.7656 14.5066L43.7254 8.43582C47.6298 12.8463 50 18.6464 50 25C50 38.8071 38.8071 50 25 50C18.6621 50 12.875 47.6415 8.46853 43.7544L14.3434 37.7702C14.9173 37.1856 14.9086 36.2464 14.324 35.6725C13.7394 35.0986 12.8002 35.1072 12.2263 35.6918L6.36331 41.6639C2.40611 37.2413 0 31.4016 0 25C0 11.1929 11.1929 0 25 0Z" fill="#4B3E31"/>
<path d="M21.0867 27.5888C20.7855 24.9565 19.9031 22.3315 18.4449 19.7189C18.2074 19.2934 17.67 19.141 17.2444 19.3785C16.8189 19.616 16.6665 20.1535 16.904 20.579C18.2987 23.0779 19.1154 25.5635 19.3604 28.0414C19.0969 28.0733 18.8288 28.0897 18.5567 28.0897C14.9021 28.0897 11.9395 25.127 11.9395 21.4724C11.9395 17.0992 13.2488 14.1817 17.99 10.2085C18.5994 9.69784 19.5202 10.1904 19.4338 10.9807C19.2633 12.5398 19.5773 13.7971 20.3659 14.8034C20.6159 15.1225 20.9534 15.4434 21.4881 15.8862C21.6389 16.0111 22.1824 16.4517 22.2169 16.4798C24.2671 18.1556 25.174 19.422 25.174 21.4724C25.1741 24.2309 23.4861 26.5952 21.0867 27.5888ZM29.8674 32.0322C31.418 30.7985 32.6272 29.1532 33.487 27.1082C33.6758 26.659 33.4648 26.1417 33.0156 25.9529C32.5664 25.7641 32.0491 25.9751 31.8603 26.4243C31.0186 28.4265 29.8168 29.9593 28.243 31.04C26.9055 29.9071 26.0563 28.2153 26.0563 26.3251C26.0563 24.4278 27.067 23.0373 28.8213 21.8396C29.2146 21.571 29.3868 21.4672 30.1882 20.999C30.7987 20.6424 31.2361 19.4775 31.3515 17.4518C31.3914 16.7516 32.1928 16.3756 32.7568 16.7924C36.5496 19.5954 38.4085 22.9333 38.4085 26.325C38.4085 29.736 35.6434 32.5012 32.2324 32.5012C31.3947 32.5012 30.5959 32.3344 29.8674 32.0322ZM19.3604 28.0414C19.9647 27.9682 20.5439 27.8136 21.0867 27.5888C21.1646 28.27 21.2037 28.9516 21.2037 29.6337C21.2037 30.9029 21.0686 32.1708 20.799 33.4367C22.138 33.4176 23.9391 32.9838 26.1799 32.1192C26.9274 31.8308 27.6149 31.4714 28.2431 31.04C28.7265 31.4494 29.2736 31.7858 29.8674 32.0322C28.965 32.7502 27.9471 33.3287 26.8151 33.7655C24.1576 34.791 22.0083 35.2737 20.3382 35.193C19.8847 36.6481 19.2532 38.1002 18.4449 39.5485C18.2074 39.974 17.67 40.1264 17.2444 39.8889C16.8189 39.6515 16.6665 39.114 16.904 38.6885C18.5977 35.654 19.4391 32.6391 19.4391 29.6337C19.4391 29.1033 19.4128 28.5725 19.3604 28.0414Z" fill="white"/>
</svg>
