<svg width="26" height="24" viewBox="0 0 26 24" fill="none" xmlns="http://www.w3.org/2000/svg">
<path d="M10.257 24C8.81664 24 7.64478 22.844 7.64478 21.4232C7.64478 20.0024 8.81664 18.8469 10.257 18.8469C11.6973 18.8469 12.8692 20.0024 12.8692 21.4232C12.8692 22.844 11.6973 24 10.257 24ZM10.257 20.4642C9.72085 20.4642 9.28432 20.8944 9.28432 21.4232C9.28432 21.9525 9.72044 22.3827 10.257 22.3827C10.7935 22.3827 11.2296 21.9525 11.2296 21.4232C11.2296 20.8944 10.7935 20.4642 10.257 20.4642Z" fill="black"/>
<path d="M19.3376 24C17.8973 24 16.7258 22.844 16.7258 21.4232C16.7258 20.0024 17.8973 18.8469 19.3376 18.8469C20.778 18.8469 21.9498 20.0024 21.9498 21.4232C21.9498 22.844 20.7776 24 19.3376 24ZM19.3376 20.4642C18.8015 20.4642 18.3654 20.8944 18.3654 21.4232C18.3654 21.9525 18.8015 22.3827 19.3376 22.3827C19.8742 22.3827 20.3103 21.9525 20.3103 21.4232C20.3103 20.8944 19.8738 20.4642 19.3376 20.4642Z" fill="black"/>
<path d="M21.2501 16.8495H8.37192C7.1189 16.8495 6.04869 16.0081 5.76914 14.8032L3.09628 3.28919C3.06103 3.13717 2.95446 3.00697 2.811 2.94147L0.593923 1.92783C0.0807461 1.69332 -0.142642 1.09249 0.0950921 0.585867C0.332826 0.0796509 0.942326 -0.140707 1.4555 0.0938023L3.67258 1.10745C4.38701 1.43374 4.91863 2.08066 5.09406 2.83797L7.76693 14.3528C7.83169 14.6326 8.08049 14.8283 8.37192 14.8283H21.2501C21.5403 14.8283 21.7887 14.6338 21.8551 14.3548L23.9332 5.53523C23.9927 5.28454 23.8845 5.10219 23.8152 5.01607C23.7455 4.92954 23.5898 4.7848 23.3291 4.7848H8.16329C7.59723 4.7848 7.13857 4.33236 7.13857 3.77398C7.13857 3.21561 7.59723 2.76316 8.16329 2.76316H23.3291C24.1484 2.76316 24.91 3.12584 25.4199 3.75862C25.9298 4.39139 26.1151 5.2057 25.9298 5.99292L23.8513 14.8129C23.568 16.0117 22.4986 16.8495 21.2501 16.8495Z" fill="black"/>
</svg>
