<svg width="24" height="25" viewBox="0 0 24 25" fill="none" xmlns="http://www.w3.org/2000/svg">
<path d="M5.92105 21.9708C7.69737 22.8789 9.69079 23.3524 11.6842 23.3919C11.7829 23.3919 11.9013 23.3919 12 23.3919C14.0132 23.3919 16.0066 22.9577 17.8224 22.0893C19.4801 21.2998 20.9803 20.1156 22.0857 18.6353C23.3487 16.9377 24 14.905 24 12.793C24 11.4509 24 10.1285 24 8.78642C24 7.3259 24 5.88511 24 4.42458C24 3.91142 24 3.39826 24 2.90484C24 1.97721 23.0726 1.36537 22.2237 1.70089L17.7237 3.57589C17.4276 3.69432 17.0921 3.71405 16.7961 3.59563C15.3355 3.02326 13.7171 2.72721 12 2.72721C10.2829 2.72721 8.66447 3.043 7.20395 3.59563C6.9079 3.71405 6.57237 3.69432 6.27632 3.57589L1.77632 1.7603C0.927632 1.40504 0 2.03662 0 2.96425C0 3.65504 0 4.36557 0 5.05635C0 6.49714 0 7.93793 0 9.39846C0 10.6221 0 11.8261 0 13.0498C0 15.0037 0.631579 16.8985 1.75658 18.4774C2.82237 19.9577 4.2829 21.1419 5.92105 21.9708ZM16.3816 12.8327C17.4671 12.8327 18.3553 13.7208 18.3553 14.8064C18.3553 15.8919 17.4671 16.78 16.3816 16.78C15.2961 16.78 14.4079 15.8919 14.4079 14.8064C14.4079 13.7013 15.2961 12.8327 16.3816 12.8327ZM7.61842 12.8327C8.70395 12.8327 9.5921 13.7208 9.5921 14.8064C9.5921 15.8919 8.70395 16.78 7.61842 16.78C6.53289 16.78 5.64474 15.8919 5.64474 14.8064C5.64474 13.7013 6.53289 12.8327 7.61842 12.8327Z" fill="white"/>
</svg>
