<svg width="61" height="52" viewBox="0 0 61 52" fill="none" xmlns="http://www.w3.org/2000/svg">
<path d="M36.282 4.90984C35.9108 4.96042 35.5526 4.70386 35.4721 4.33798C34.9699 2.05432 32.9344 0.345459 30.5 0.345459C28.6016 0.345459 26.9459 1.38448 26.0706 2.92492C25.916 3.19696 25.5959 3.34012 25.2924 3.26362C20.6247 2.08654 16.0635 6.29218 16.7786 10.9994C16.8227 11.2902 16.6716 11.5786 16.4116 11.7163C14.7987 12.5705 13.7 14.266 13.7 16.2182C13.7 18.2388 14.8772 19.9845 16.5831 20.8068C19.2434 22.5667 24.4778 23.7636 30.5 23.7636C37.8569 23.7636 44.0381 21.9774 45.7869 19.5604C45.8065 19.5333 45.8274 19.5084 45.8506 19.4843C46.7366 18.5683 47.2818 17.3205 47.2818 15.9455C47.2818 13.8157 45.9154 11.9204 44.0428 11.141C43.5134 10.9206 43.1134 10.4373 43.0169 9.87208C42.4857 6.7633 39.4869 4.47298 36.282 4.90984Z" fill="#4B3E31"/>
<path fill-rule="evenodd" clip-rule="evenodd" d="M11.7877 13.5542C11.4727 14.3815 11.3 15.2794 11.3 16.2181C11.3 19.1349 12.9673 21.6579 15.3908 22.8941C18.658 24.9862 24.3868 26.1635 30.5 26.1635C34.3572 26.1635 37.9633 25.6969 40.8915 24.88C42.3552 24.4716 43.6977 23.9624 44.8347 23.3489C47.5588 21.8792 49.6818 19.1396 49.6818 15.9454C49.6818 15.0785 49.5347 14.2463 49.2641 13.4722C52.52 14.9909 54.5894 16.9944 55.1 19.3681L60.4052 40.5471C60.4682 40.807 60.5 41.0715 60.5 41.3405C60.5 47.0368 47.0685 51.6544 30.5 51.6544C13.9315 51.6544 0.5 47.0368 0.5 41.3405C0.5 41.0715 0.52796 40.807 0.58298 40.5471L5.9 19.3681C6.41324 17.0898 8.50202 15.0932 11.7877 13.5542ZM20.9 34.2544C20.9 35.072 21.2271 35.8133 21.7576 36.3544C21.2271 36.8956 20.9 37.6368 20.9 38.4544C20.9 40.1113 22.2432 41.4544 23.9 41.4544C25.4556 41.4544 26.7346 40.2704 26.8852 38.7544H34.1148C34.2654 40.2704 35.5444 41.4544 37.1 41.4544C38.7568 41.4544 40.1 40.1113 40.1 38.4544C40.1 37.6368 39.7729 36.8956 39.2424 36.3544C39.7729 35.8133 40.1 35.072 40.1 34.2544C40.1 32.5976 38.7568 31.2544 37.1 31.2544C35.5444 31.2544 34.2654 32.4384 34.1148 33.9544H26.8852C26.7346 32.4384 25.4556 31.2544 23.9 31.2544C22.2432 31.2544 20.9 32.5976 20.9 34.2544Z" fill="#4B3E31"/>
</svg>
