<svg width="25" height="29" viewBox="0 0 25 29" fill="none" xmlns="http://www.w3.org/2000/svg">
<path d="M8.75 18.375C8.75 19.515 9.61 20.375 10.75 20.375C11.387 20.375 12.058 20.135 12.755 19.663C13.442 20.135 14.113 20.375 14.75 20.375C15.89 20.375 16.75 19.515 16.75 18.375C16.75 15.852 14.769 13.375 12.75 13.375C10.731 13.375 8.75 15.852 8.75 18.375ZM12.75 15.375C13.502 15.375 14.75 16.828 14.75 18.375C14.535 18.375 14.222 18.244 13.889 18.015C13.543 17.777 13.146 17.658 12.75 17.658C12.354 17.658 11.957 17.777 11.611 18.015C11.278 18.244 10.965 18.375 10.75 18.375C10.75 16.828 11.998 15.375 12.75 15.375Z" fill="#4B3E31"/>
<path d="M10.15 11.375C10.15 10.823 10.598 10.375 11.15 10.375C11.702 10.375 12.15 10.823 12.15 11.375C12.15 11.927 11.702 12.375 11.15 12.375C10.598 12.375 10.15 11.927 10.15 11.375Z" fill="#4B3E31"/>
<path d="M13.35 11.375C13.35 10.823 13.798 10.375 14.35 10.375C14.902 10.375 15.35 10.823 15.35 11.375C15.35 11.927 14.902 12.375 14.35 12.375C13.798 12.375 13.35 11.927 13.35 11.375Z" fill="#4B3E31"/>
<path d="M7.75 12.975C7.75 12.423 8.198 11.975 8.75 11.975C9.302 11.975 9.75 12.423 9.75 12.975C9.75 13.527 9.302 13.975 8.75 13.975C8.198 13.975 7.75 13.527 7.75 12.975Z" fill="#4B3E31"/>
<path d="M15.75 12.975C15.75 12.423 16.198 11.975 16.75 11.975C17.302 11.975 17.75 12.423 17.75 12.975C17.75 13.527 17.302 13.975 16.75 13.975C16.198 13.975 15.75 13.527 15.75 12.975Z" fill="#4B3E31"/>
<path d="M22.75 5.213V2.375C22.75 1.272 21.853 0.375 20.75 0.375H4.75C3.647 0.375 2.75 1.272 2.75 2.375V5.213C0.837 11.004 0.756 14.228 0.75 25.364C0.75 26.165 1.061 26.92 1.626 27.489C2.194 28.061 2.948 28.375 3.75 28.375H21.75C22.552 28.375 23.307 28.061 23.874 27.489C24.439 26.92 24.75 26.166 24.75 25.365C24.744 14.229 24.663 11.004 22.75 5.213ZM20.75 2.375V4.375H4.75V2.375H20.75ZM22.455 26.08C22.266 26.27 22.015 26.375 21.75 26.375H3.75C3.484 26.375 3.234 26.27 3.045 26.08C2.855 25.888 2.75 25.635 2.75 25.366C2.756 14.847 2.832 11.553 4.479 6.375H21.022C22.669 11.553 22.745 14.847 22.75 25.366C22.75 25.635 22.645 25.888 22.455 26.08Z" fill="#4B3E31"/>
<path d="M19.75 23.375C19.75 23.927 19.302 24.375 18.75 24.375H6.75C6.198 24.375 5.75 23.927 5.75 23.375C5.75 22.823 6.198 22.375 6.75 22.375H18.75C19.302 22.375 19.75 22.823 19.75 23.375Z" fill="#4B3E31"/>
</svg>
