<svg width="24" height="25" viewBox="0 0 24 25" fill="none" xmlns="http://www.w3.org/2000/svg">
<path d="M1.07888 10.0832C-0.861711 10.0832 0.0888684 3.37035 1.78003 1.95016C3.05975 0.874956 5.73577 0.581718 7.10121 0.501222C7.51179 0.477264 7.81436 0.809792 7.68407 1.13657C6.81321 3.31477 3.88261 10.0832 1.07888 10.0832Z" fill="white"/>
<path d="M16.3165 1.1374C16.1854 0.809663 16.4888 0.477135 16.8994 0.502051C18.2648 0.582547 20.9408 0.875785 22.2205 1.95099C23.9117 3.37022 24.8614 10.0831 22.9208 10.0831C20.1171 10.0831 17.1865 3.31464 16.3165 1.1374Z" fill="white"/>
<path d="M20.5647 10.5795C18.6301 9.06155 16.9347 5.93656 15.6481 2.93902C14.6358 2.60266 13.4289 2.41675 12 2.41675C10.5712 2.41675 9.3643 2.60266 8.35201 2.93902C7.06542 5.93656 5.36998 9.06155 3.43539 10.5795C3.32482 14.6014 6.55285 16.4212 6.76285 20.0877C6.79714 20.6626 6.28285 21.5922 6.28285 22.2246C6.28285 24.3521 8.57144 25.4158 12 23.4992C15.4286 25.4158 17.7172 24.3521 17.7172 22.2246C17.7172 21.5922 17.2029 20.6626 17.2372 20.0877C17.4481 16.4116 20.6753 14.5804 20.5647 10.5795ZM8.14286 11.9997C7.43314 11.9997 6.85714 11.3557 6.85714 10.5622C6.85714 9.76877 7.43314 9.12479 8.14286 9.12479C8.85258 9.12479 9.42859 9.76877 9.42859 10.5622C9.42859 11.3557 8.85258 11.9997 8.14286 11.9997ZM12 19.666C11.2303 19.666 9.52544 17.4591 9.91373 16.6033C10.38 15.576 13.6192 15.576 14.0855 16.6033C14.4746 17.4591 12.7698 19.666 12 19.666ZM15.8572 11.9997C15.1475 11.9997 14.5715 11.3557 14.5715 10.5622C14.5715 9.76877 15.1475 9.12479 15.8572 9.12479C16.5669 9.12479 17.1429 9.76877 17.1429 10.5622C17.1429 11.3557 16.5669 11.9997 15.8572 11.9997Z" fill="white"/>
</svg>
