<svg width="45" height="46" viewBox="0 0 45 46" fill="none" xmlns="http://www.w3.org/2000/svg">
<g clip-path="url(#clip0_1183_7771)">
<path d="M22.5 44.502C34.6352 44.502 44.4727 34.6645 44.4727 22.5293C44.4727 10.3941 34.6352 0.556641 22.5 0.556641C10.3648 0.556641 0.527344 10.3941 0.527344 22.5293C0.527344 34.6645 10.3648 44.502 22.5 44.502Z" fill="#1877F2"/>
<path opacity="0.49" d="M42.5117 31.6149C42.5656 31.3973 42.6558 31.1903 42.7785 31.0026C43.9002 28.3188 44.4761 25.4384 44.4727 22.5295C44.4727 22.3723 44.47 22.2158 44.4667 22.0593L30.2353 7.82798C28.8767 7.68385 27.5112 7.61404 26.145 7.61889C22.0973 7.61889 19.3271 10.0886 19.3271 14.6263V18.5393H14.7646V23.8567L19.3271 28.4182V37.4402L26.0947 44.2078C29.654 43.6159 33.0131 42.1577 35.876 39.9617C38.7389 37.7656 41.0177 34.8992 42.5117 31.6149Z" fill="url(#paint0_linear_1183_7771)"/>
<path d="M24.8155 37.4402V23.8567H29.3946L30.0806 18.5393H24.8155V15.153C24.8155 13.6171 25.2418 12.5706 27.4441 12.5706H30.2352V7.82789C28.8766 7.68384 27.5111 7.61407 26.1449 7.61889C22.0972 7.61889 19.327 10.0886 19.327 14.6263V18.5393H14.7646V23.8567H19.3271V37.4402H24.8155Z" fill="white"/>
</g>
<defs>
<linearGradient id="paint0_linear_1183_7771" x1="16.393" y1="14.2459" x2="49.7795" y2="47.6324" gradientUnits="userSpaceOnUse">
<stop stop-color="#1D1D1B"/>
<stop offset="0.369" stop-color="#1D1D1B" stop-opacity="0.856"/>
<stop offset="0.75" stop-color="#1D1D1B" stop-opacity="0.429"/>
<stop offset="1" stop-color="#1D1D1B" stop-opacity="0"/>
</linearGradient>
</defs>
</svg>
