<svg width="61" height="61" viewBox="0 0 61 61" fill="none" xmlns="http://www.w3.org/2000/svg">
<path d="M57.5 32.5C58.0304 32.5 58.5391 32.2893 58.9142 31.9142C59.2893 31.5391 59.5 31.0304 59.5 30.5C59.5 29.9696 59.2893 29.4609 58.9142 29.0858C58.5391 28.7107 58.0304 28.5 57.5 28.5H54.328L56.914 25.914C57.2783 25.5368 57.4799 25.0316 57.4753 24.5072C57.4708 23.9828 57.2605 23.4812 56.8896 23.1104C56.5188 22.7395 56.0172 22.5292 55.4928 22.5247C54.9684 22.5201 54.4632 22.7217 54.086 23.086L48.672 28.5H35.328L44.763 19.065H52.42C52.9504 19.065 53.4591 18.8543 53.8342 18.4792C54.2093 18.1041 54.42 17.5954 54.42 17.065C54.42 16.5346 54.2093 16.0259 53.8342 15.6508C53.4591 15.2757 52.9504 15.065 52.42 15.065H48.763L51.006 12.822C51.197 12.6375 51.3494 12.4168 51.4542 12.1728C51.559 11.9288 51.6142 11.6664 51.6165 11.4008C51.6188 11.1352 51.5682 10.8719 51.4676 10.6261C51.3671 10.3803 51.2186 10.157 51.0308 9.96921C50.843 9.78143 50.6197 9.63292 50.3739 9.53236C50.1281 9.4318 49.8648 9.38119 49.5992 9.3835C49.3336 9.38581 49.0712 9.44098 48.8272 9.5458C48.5832 9.65062 48.3625 9.80298 48.178 9.994L45.935 12.237V8.58C45.935 8.04957 45.7243 7.54086 45.3492 7.16579C44.9741 6.79071 44.4654 6.58 43.935 6.58C43.4046 6.58 42.8959 6.79071 42.5208 7.16579C42.1457 7.54086 41.935 8.04957 41.935 8.58V16.237L32.5 25.672V12.328L37.914 6.914C38.2783 6.5368 38.4799 6.03159 38.4753 5.5072C38.4708 4.9828 38.2605 4.48118 37.8896 4.11036C37.5188 3.73955 37.0172 3.52921 36.4928 3.52465C35.9684 3.5201 35.4632 3.72168 35.086 4.086L32.5 6.672V3.5C32.5 2.96957 32.2893 2.46086 31.9142 2.08579C31.5391 1.71071 31.0304 1.5 30.5 1.5C29.9696 1.5 29.4609 1.71071 29.0858 2.08579C28.7107 2.46086 28.5 2.96957 28.5 3.5V6.672L25.914 4.086C25.5368 3.72168 25.0316 3.5201 24.5072 3.52465C23.9828 3.52921 23.4812 3.73955 23.1104 4.11036C22.7395 4.48118 22.5292 4.9828 22.5247 5.5072C22.5201 6.03159 22.7217 6.5368 23.086 6.914L28.5 12.328V25.672L19.065 16.237V8.58C19.065 8.04957 18.8543 7.54086 18.4792 7.16579C18.1041 6.79071 17.5954 6.58 17.065 6.58C16.5346 6.58 16.0259 6.79071 15.6508 7.16579C15.2757 7.54086 15.065 8.04957 15.065 8.58V12.237L12.822 9.994C12.4448 9.62969 11.9396 9.4281 11.4152 9.43265C10.8908 9.43721 10.3892 9.64755 10.0184 10.0184C9.64755 10.3892 9.43721 10.8908 9.43265 11.4152C9.42809 11.9396 9.62968 12.4448 9.994 12.822L12.237 15.065H8.58C8.31736 15.065 8.05728 15.1167 7.81463 15.2172C7.57198 15.3178 7.3515 15.4651 7.16579 15.6508C6.98007 15.8365 6.83275 16.057 6.73224 16.2996C6.63173 16.5423 6.58 16.8024 6.58 17.065C6.58 17.3276 6.63173 17.5877 6.73224 17.8304C6.83275 18.073 6.98007 18.2935 7.16579 18.4792C7.3515 18.6649 7.57198 18.8123 7.81463 18.9128C8.05728 19.0133 8.31736 19.065 8.58 19.065H16.237L25.672 28.5H12.328L6.914 23.086C6.5368 22.7217 6.03159 22.5201 5.5072 22.5247C4.9828 22.5292 4.48118 22.7395 4.11036 23.1104C3.73955 23.4812 3.52921 23.9828 3.52465 24.5072C3.5201 25.0316 3.72168 25.5368 4.086 25.914L6.672 28.5H3.5C2.96957 28.5 2.46086 28.7107 2.08579 29.0858C1.71071 29.4609 1.5 29.9696 1.5 30.5C1.5 31.0304 1.71071 31.5391 2.08579 31.9142C2.46086 32.2893 2.96957 32.5 3.5 32.5H57.5Z" fill="#4B3E31"/>
<path d="M37.4999 52.467C37.5026 53.4967 37.2786 54.5143 36.8438 55.4477C36.409 56.381 35.7741 57.2072 34.9841 57.8676C34.1941 58.528 33.2684 59.0064 32.2727 59.2688C31.277 59.5312 30.2358 59.5712 29.2229 59.386C27.5479 59.0902 26.04 58.1891 24.986 56.854C23.9321 55.5189 23.4057 53.8429 23.5069 52.145C23.6969 47.777 27.7289 45.687 29.9209 40.88C29.97 40.7674 30.0509 40.6715 30.1536 40.6042C30.2564 40.5368 30.3766 40.501 30.4994 40.501C30.6223 40.501 30.7425 40.5368 30.8452 40.6042C30.948 40.6715 31.0289 40.7674 31.0779 40.88C33.3239 45.8 37.4999 47.876 37.4999 52.467Z" fill="#4B3E31"/>
<path d="M19.5001 48.467C19.5028 49.4967 19.2788 50.5143 18.844 51.4477C18.4092 52.381 17.7742 53.2072 16.9842 53.8676C16.1942 54.528 15.2685 55.0064 14.2729 55.2688C13.2772 55.5312 12.2359 55.5712 11.2231 55.386C9.54821 55.0898 8.04057 54.1886 6.98672 52.8535C5.93287 51.5185 5.40629 49.8428 5.50707 48.145C5.69707 43.777 9.72907 41.687 11.9211 36.88C11.9701 36.7674 12.051 36.6715 12.1538 36.6042C12.2565 36.5368 12.3767 36.501 12.4996 36.501C12.6224 36.501 12.7426 36.5368 12.8454 36.6042C12.9481 36.6715 13.029 36.7674 13.0781 36.88C15.3241 41.8 19.5001 43.876 19.5001 48.467Z" fill="#4B3E31"/>
<path d="M55.5001 48.467C55.5028 49.4967 55.2788 50.5143 54.844 51.4477C54.4092 52.381 53.7742 53.2072 52.9842 53.8676C52.1942 54.528 51.2685 55.0064 50.2728 55.2688C49.2772 55.5312 48.2359 55.5712 47.2231 55.386C45.5482 55.0898 44.0406 54.1886 42.9867 52.8535C41.9329 51.5185 41.4063 49.8428 41.5071 48.145C41.6971 43.777 45.7291 41.687 47.9211 36.88C47.9701 36.7674 48.051 36.6715 48.1538 36.6042C48.2565 36.5368 48.3767 36.501 48.4996 36.501C48.6224 36.501 48.7426 36.5368 48.8454 36.6042C48.9481 36.6715 49.029 36.7674 49.0781 36.88C51.3241 41.8 55.5001 43.876 55.5001 48.467Z" fill="#4B3E31"/>
</svg>
