<svg width="28" height="25" viewBox="0 0 28 25" fill="#4B3E31" xmlns="http://www.w3.org/2000/svg">
<path d="M18.3627 13.504C17.1271 11.5763 15.0226 10.4253 12.7331 10.4253C10.4438 10.4253 8.3391 11.5763 7.10364 13.504L4.12614 18.1489C3.63212 18.9197 3.40418 19.8099 3.46682 20.7231C3.52947 21.6366 3.87704 22.4872 4.47183 23.1834C5.06703 23.8794 5.85352 24.3549 6.74623 24.559C7.63893 24.7628 8.55406 24.6759 9.3925 24.3074L9.44718 24.2831C11.5571 23.3736 13.9687 23.3818 16.0734 24.3074C16.6163 24.546 17.1914 24.6667 17.7717 24.6667C18.0872 24.6667 18.4046 24.6309 18.7191 24.5592C19.6118 24.3554 20.3983 23.8798 20.9937 23.1838C21.5887 22.4878 21.9365 21.637 21.9993 20.7236C22.0622 19.8099 21.8342 18.9197 21.3402 18.1487L18.3627 13.504ZM19.7704 22.1375C19.013 23.0229 17.7878 23.3028 16.7215 22.8339C15.4539 22.2764 14.0934 21.9978 12.7325 21.9978C11.3728 21.9978 10.0124 22.2762 8.74576 22.8331L8.70972 22.849C7.6515 23.2965 6.44433 23.013 5.69534 22.1375C4.93882 21.2519 4.85271 19.9983 5.48123 19.0176L8.45894 14.3726C9.39711 12.909 10.9948 12.0351 12.7331 12.0351C14.4714 12.0351 16.0693 12.909 17.0076 14.3726L19.9849 19.0173C20.6137 19.9985 20.5273 21.2524 19.7704 22.1375Z" fill="#4B3E31"/>
<path d="M4.92817 13.4979C5.81396 13.1577 6.4869 12.4439 6.82316 11.4879C7.14286 10.5782 7.11667 9.55123 6.74899 8.59588C6.3811 7.64116 5.71193 6.86179 4.8649 6.40109C3.97471 5.91734 2.99694 5.83857 2.11262 6.17943C0.333487 6.86347 -0.482959 9.06203 0.292843 11.0815C0.912563 12.6888 2.35795 13.7034 3.81925 13.7034C4.19238 13.7034 4.56656 13.6372 4.92817 13.4979ZM1.795 10.5032C1.33786 9.31323 1.73948 8.04739 2.69085 7.68159C2.86265 7.61539 3.04429 7.5825 3.2297 7.5825C3.51589 7.5825 3.8115 7.66064 4.09601 7.81547C4.60763 8.09348 5.01637 8.57618 5.24683 9.17433C5.47708 9.77289 5.49761 10.4048 5.30444 10.9539C5.12741 11.4571 4.78864 11.8271 4.35077 11.9953L4.34993 11.9957C3.39982 12.362 2.25361 11.6922 1.795 10.5032Z" fill="#4B3E31"/>
<path d="M10.7056 9.85878C12.9297 9.85878 14.7392 7.79724 14.7392 5.26326C14.7392 2.72865 12.9297 0.666687 10.7056 0.666687C8.48166 0.666687 6.67236 2.72865 6.67236 5.26326C6.67236 7.79724 8.48166 9.85878 10.7056 9.85878ZM10.7056 2.27632C12.042 2.27632 13.1296 3.61633 13.1296 5.26326C13.1296 6.90956 12.042 8.24914 10.7056 8.24914C9.36913 8.24914 8.282 6.90956 8.282 5.26326C8.282 3.61633 9.36913 2.27632 10.7056 2.27632Z" fill="#4B3E31"/>
<path d="M17.6716 10.9878H17.6718C18.014 11.1014 18.363 11.1556 18.7106 11.1556C20.3326 11.1556 21.9133 9.97506 22.5165 8.16073C22.8638 7.11634 22.841 6.01203 22.4521 5.05145C22.0453 4.04603 21.2913 3.31611 20.3288 2.99598C19.3663 2.67627 18.3249 2.80952 17.397 3.37142C16.5105 3.90838 15.8313 4.77909 15.4846 5.82348C14.7524 8.02665 15.7335 10.3434 17.6716 10.9878ZM17.0121 6.33111C17.2386 5.64917 17.6714 5.08727 18.231 4.74829C18.7487 4.43466 19.3135 4.35484 19.8212 4.52349C20.3286 4.69235 20.7329 5.09419 20.96 5.65524C21.2054 6.26156 21.2159 6.97094 20.989 7.65289C20.5366 9.01384 19.2762 9.82463 18.1795 9.4603C17.0835 9.09576 16.5598 7.69206 17.0121 6.33111Z" fill="#4B3E31"/>
<path d="M26.166 10.4515L26.1654 10.4508C24.6316 9.31783 22.3377 9.80892 21.0516 11.5461C19.7667 13.2842 19.9676 15.6208 21.4991 16.7547C22.0576 17.1685 22.7176 17.3662 23.393 17.3662C24.5702 17.3662 25.795 16.7654 26.6135 15.6604C27.8984 13.9224 27.6977 11.5857 26.166 10.4515ZM25.3198 14.7028C24.5604 15.7279 23.2763 16.0679 22.4569 15.461C21.6382 14.8549 21.5883 13.5279 22.3457 12.5034C22.8491 11.8233 23.5845 11.445 24.2622 11.445C24.605 11.445 24.9331 11.5417 25.2088 11.7456C26.0269 12.3523 26.0766 13.6789 25.3198 14.7028Z" fill="#4B3E31"/>
</svg>
