<svg width="45" height="45" viewBox="0 0 45 45" fill="none" xmlns="http://www.w3.org/2000/svg">
<g clip-path="url(#clip0_499_10099)">
<path d="M22.5 44.4727C34.6352 44.4727 44.4727 34.6352 44.4727 22.5C44.4727 10.3648 34.6352 0.527344 22.5 0.527344C10.3648 0.527344 0.527344 10.3648 0.527344 22.5C0.527344 34.6352 10.3648 44.4727 22.5 44.4727Z" fill="url(#paint0_linear_499_10099)"/>
<path opacity="0.49" d="M44.4627 21.8626L33.8604 11.2602C32.3232 9.73969 30.2535 9.17314 28.1444 9.06882H16.8554C14.746 9.17314 12.6765 9.73942 11.1394 11.2602C9.61696 12.7665 9.03003 14.8264 8.92456 16.9154V28.0846C9.03003 30.1736 9.61705 32.2335 11.1394 33.7397L21.8625 44.4628C22.0742 44.4688 22.2867 44.4727 22.4999 44.4727C34.635 44.4727 44.4725 34.6351 44.4725 22.5C44.4725 22.2867 44.4687 22.0743 44.4627 21.8626ZM16.9979 33.3863C15.567 33.347 13.9448 32.9908 12.9253 31.9018C11.8658 30.7698 11.4714 29.4021 11.4249 27.8724C11.4249 27.8724 11.3535 19.8128 11.4249 17.1275C11.4655 15.5977 11.8658 14.2301 12.9253 13.0982C13.9448 12.0088 15.567 11.653 16.9979 11.6137C19.7477 11.5382 25.2514 11.5382 28.0011 11.6137C29.4321 11.653 31.0543 12.0092 32.0738 13.0982C33.1332 14.2301 33.5336 15.5977 33.5742 17.1275V17.2629L30.6939 14.3823C30.5611 14.2495 30.4034 14.1441 30.2299 14.0722C30.0563 14.0004 29.8703 13.9634 29.6825 13.9633C29.4946 13.9633 29.3086 14.0003 29.1351 14.0722C28.9615 14.1441 28.8038 14.2495 28.671 14.3823C28.5382 14.5151 28.4328 14.6728 28.3609 14.8463C28.289 15.0199 28.252 15.2059 28.252 15.3937C28.252 15.7731 28.4027 16.137 28.6709 16.4052L33.5745 21.3088V23.46L27.5572 17.4427C26.2144 16.1087 24.3976 15.3615 22.5048 15.3646C20.6121 15.3677 18.7977 16.121 17.4593 17.4594C16.121 18.7978 15.3677 20.6121 15.3646 22.5049C15.3614 24.3976 16.1087 26.2144 17.4427 27.5572L23.3272 33.4419C21.0014 33.4476 18.5573 33.429 16.9979 33.3863Z" fill="url(#paint1_linear_499_10099)"/>
<path d="M36.0753 16.9154C35.9698 14.8264 35.3828 12.7665 33.8604 11.2602C32.3233 9.73969 30.2536 9.17314 28.1445 9.06882H16.8554C14.746 9.17314 12.6765 9.73942 11.1394 11.2602C9.61696 12.7665 9.03003 14.8264 8.92456 16.9154V28.0845C9.03003 30.1736 9.61705 32.2335 11.1394 33.7397C12.6765 35.2602 14.7463 35.8268 16.8554 35.9312H28.1444C30.2538 35.8268 32.3232 35.2606 33.8604 33.7397C35.3828 32.2335 35.9697 30.1736 36.0752 28.0845L36.0753 16.9154ZM11.4257 17.1276C11.4663 15.5977 11.8666 14.2301 12.926 13.0982C13.9456 12.0088 15.5678 11.653 16.9987 11.6137C19.7485 11.5383 25.2522 11.5383 28.0019 11.6137C29.4329 11.653 31.0551 12.0092 32.0746 13.0982C33.134 14.2301 33.5344 15.5977 33.575 17.1276V27.8724C33.5344 29.4023 33.134 30.7699 32.0746 31.9018C31.0551 32.9912 29.4329 33.347 28.0019 33.3863C25.2522 33.4617 19.7485 33.4617 16.9987 33.3863C15.5678 33.347 13.9456 32.9908 12.926 31.9018C11.8666 30.7699 11.4722 29.4021 11.4257 27.8724C11.4257 27.8724 11.3539 19.8128 11.4257 17.1276Z" fill="white"/>
<path d="M29.6824 16.8242C30.4724 16.8242 31.1128 16.1838 31.1128 15.3938C31.1128 14.6038 30.4724 13.9633 29.6824 13.9633C28.8924 13.9633 28.252 14.6038 28.252 15.3938C28.252 16.1838 28.8924 16.8242 29.6824 16.8242Z" fill="white"/>
<path d="M22.5 15.3478C21.0855 15.3478 19.7027 15.7673 18.5265 16.5531C17.3504 17.339 16.4337 18.456 15.8923 19.7629C15.351 21.0698 15.2094 22.5078 15.4853 23.8952C15.7613 25.2826 16.4424 26.5569 17.4427 27.5572C18.4429 28.5574 19.7173 29.2386 21.1046 29.5146C22.492 29.7905 23.9301 29.6489 25.2369 29.1076C26.5438 28.5663 27.6608 27.6496 28.4467 26.4735C29.2326 25.2973 29.6521 23.9145 29.6521 22.5C29.6521 21.5608 29.4671 20.6307 29.1077 19.763C28.7483 18.8952 28.2215 18.1068 27.5573 17.4426C26.8932 16.7785 26.1048 16.2517 25.237 15.8922C24.3693 15.5328 23.4392 15.3478 22.5 15.3478ZM22.5 27.1143C21.5874 27.1143 20.6953 26.8436 19.9365 26.3366C19.1776 25.8296 18.5862 25.1089 18.237 24.2658C17.8877 23.4227 17.7964 22.4949 17.9744 21.5998C18.1524 20.7047 18.5919 19.8825 19.2372 19.2372C19.8825 18.5919 20.7047 18.1524 21.5998 17.9744C22.4949 17.7964 23.4227 17.8877 24.2658 18.237C25.1089 18.5862 25.8296 19.1776 26.3366 19.9365C26.8436 20.6953 27.1143 21.5874 27.1143 22.5C27.1143 23.7238 26.6281 24.8974 25.7628 25.7628C24.8974 26.6281 23.7238 27.1143 22.5 27.1143Z" fill="white"/>
</g>
<defs>
<linearGradient id="paint0_linear_499_10099" x1="6.96296" y1="38.037" x2="38.037" y2="6.96296" gradientUnits="userSpaceOnUse">
<stop stop-color="#D6B43D"/>
<stop offset="0.051" stop-color="#DBA93F"/>
<stop offset="0.143" stop-color="#E88A45"/>
<stop offset="0.164" stop-color="#EB8246"/>
<stop offset="0.211" stop-color="#E7774D"/>
<stop offset="0.294" stop-color="#DD5860"/>
<stop offset="0.31" stop-color="#DB5164"/>
<stop offset="0.464" stop-color="#D2466C"/>
<stop offset="0.567" stop-color="#C93B73"/>
<stop offset="0.607" stop-color="#CB3179"/>
<stop offset="0.733" stop-color="#A23394"/>
<stop offset="0.856" stop-color="#7F35AB"/>
<stop offset="0.91" stop-color="#7D35AB"/>
<stop offset="0.94" stop-color="#7537AA"/>
<stop offset="0.964" stop-color="#673AA9"/>
<stop offset="0.985" stop-color="#533DA8"/>
<stop offset="1" stop-color="#4041A6"/>
</linearGradient>
<linearGradient id="paint1_linear_499_10099" x1="11.1997" y1="11.1998" x2="38.0368" y2="38.037" gradientUnits="userSpaceOnUse">
<stop stop-color="#1D1D1B"/>
<stop offset="0.369" stop-color="#1D1D1B" stop-opacity="0.856"/>
<stop offset="0.75" stop-color="#1D1D1B" stop-opacity="0.429"/>
<stop offset="1" stop-color="#1D1D1B" stop-opacity="0"/>
</linearGradient>
</defs>
</svg>
