<svg width="25" height="26" viewBox="0 0 25 26" fill="none" xmlns="http://www.w3.org/2000/svg">
<g clip-path="url(#clip0_1006_2973)">
<path fill-rule="evenodd" clip-rule="evenodd" d="M12.5 0.935096C10.1312 0.935096 8.20234 2.86346 8.20234 5.23197C8.20234 5.50077 8.22729 5.76451 8.27483 6.0201C8.34277 6.38546 8.22458 6.60744 7.8842 6.7365C6.73686 7.17154 5.87006 8.02576 5.57553 9.12146V9.12224C5.28376 10.2184 5.60798 11.3912 6.3835 12.3403C6.50757 12.4922 6.53677 12.6114 6.52769 12.7096C6.51861 12.8078 6.46699 12.9092 6.32017 13.0354C4.96025 14.2037 4.45502 15.6477 4.79431 16.9674C5.21025 18.5192 6.77123 19.4418 8.48314 19.8414C9.41638 20.0592 10.3598 20.841 10.5186 21.7144L10.7338 22.8985C10.8885 23.7493 11.635 24.3724 12.5 24.3724C13.3649 24.3724 14.1114 23.7493 14.2662 22.8984L14.4813 21.7143C14.6402 20.8409 15.5836 20.0592 16.5168 19.8413C18.2288 19.4417 19.7897 18.5192 20.2057 16.9674C20.5663 15.572 19.9479 14.0417 18.6836 13.0381C18.5336 12.9158 18.4852 12.8101 18.4761 12.7115C18.467 12.6129 18.4964 12.4934 18.6203 12.3415C19.3954 11.3913 19.7182 10.2175 19.4244 9.12114C19.1299 8.02544 18.2632 7.17122 17.1158 6.73618C16.7754 6.60712 16.6572 6.38514 16.7252 6.01978C16.7726 5.76424 16.7976 5.50048 16.7976 5.23169C16.7976 2.86317 14.8689 0.935096 12.5 0.935096ZM4.89727 3.41158C2.82805 3.96603 1.59555 6.10588 2.1507 8.1776C2.21371 8.41273 2.29724 8.63724 2.39866 8.84974C2.53532 9.13606 2.49004 9.3301 2.23997 9.51045C1.3404 10.1593 0.781532 11.1128 0.781219 12.1441C0.781731 13.1759 1.34095 14.129 2.23997 14.7785C2.37575 14.8766 2.42153 14.9637 2.43452 15.0395C2.44751 15.1152 2.43473 15.2071 2.33839 15.3408C1.48148 16.5299 1.27179 17.9899 1.93097 19.138C2.66136 20.3919 4.23976 20.8523 5.82347 20.7936C6.66574 20.7666 7.64878 21.2211 7.97952 21.9212L8.44034 22.897C8.76246 23.5788 9.50847 23.9461 10.2394 23.8064C10.1106 23.5708 10.0155 23.3132 9.96547 23.0381L9.75033 21.854C9.67424 21.4356 8.94919 20.7523 8.30532 20.602C6.4374 20.166 4.5638 19.1195 4.04048 17.1719C3.64646 15.8623 4.129 14.1945 5.15435 13.1129L3.482 12.5025C3.27929 12.4284 3.17508 12.2039 3.24932 12.0013C3.32343 11.799 3.54736 11.6948 3.74979 11.7686L5.49311 12.4041C4.81905 11.3887 4.52265 10.1802 4.80952 9.00219C4.81606 8.97531 4.81308 8.94815 4.8202 8.92131C4.82045 8.9203 4.82071 8.91928 4.82098 8.91827C4.96767 8.37253 5.23274 7.88581 5.57782 7.4603L5.43667 6.93463C5.38038 6.72603 5.50413 6.51135 5.71286 6.45549C5.95392 6.40375 6.13676 6.53588 6.19122 6.73168L6.2141 6.81789C6.59475 6.50739 7.02844 6.25168 7.49738 6.06105C7.45251 5.78997 7.42107 5.51429 7.42107 5.23172C7.42107 4.70011 7.50495 4.18765 7.65835 3.70508C6.71421 3.24082 5.80707 3.17961 4.89727 3.41158ZM17.3414 3.70531C17.4948 4.18789 17.5787 4.70035 17.5787 5.23195C17.5787 5.51456 17.5472 5.79027 17.5024 6.06125C17.9713 6.25186 18.405 6.50758 18.7857 6.81808L18.8086 6.73187C18.8973 6.47009 19.1239 6.41808 19.2869 6.45569C19.4956 6.51153 19.6194 6.72621 19.5631 6.93483L19.422 7.46049C19.767 7.886 20.0321 8.37276 20.1788 8.91846V8.91924C20.5009 10.1214 20.201 11.3634 19.512 12.4028L21.25 11.7689C21.4524 11.6951 21.6764 11.7992 21.7504 12.0015C21.8247 12.2042 21.7205 12.4287 21.5177 12.5028L19.8469 13.1124C20.8479 14.2456 21.3472 15.717 20.9616 17.1674C20.9611 17.1682 20.9605 17.169 20.96 17.1698C20.9598 17.1706 20.9595 17.1712 20.9593 17.1721C20.4359 19.1197 18.5624 20.1662 16.6944 20.6022C16.0505 20.7525 15.3255 21.4358 15.2494 21.8542L15.0343 23.0383C14.9842 23.3134 14.8891 23.571 14.7604 23.8065C15.4913 23.9463 16.2373 23.579 16.5594 22.8971L17.0202 21.9214C17.351 21.2213 18.334 20.7667 19.1763 20.7937C20.7217 20.8716 22.382 20.3613 23.0688 19.1382C23.728 17.9901 23.5183 16.5301 22.6614 15.341C22.565 15.2073 22.5523 15.1154 22.5653 15.0396C22.5783 14.9639 22.624 14.8768 22.7598 14.7787C23.6588 14.1291 24.2181 13.176 24.2186 12.1443C24.2182 11.1129 23.6594 10.1595 22.7598 9.51063C22.5097 9.33027 22.4645 9.13624 22.6011 8.84993C22.7025 8.63744 22.7861 8.4129 22.8491 8.17778C23.4042 6.10594 22.1717 3.96606 20.1025 3.41176C19.0939 3.16011 18.1891 3.28067 17.3414 3.70531ZM12.4996 4.4507C12.7153 4.4507 12.8902 4.62559 12.8902 4.84133V11.9038L16.1816 9.59976C16.3581 9.47595 16.6016 9.51863 16.7255 9.69513C16.8494 9.87169 16.8067 10.1152 16.6302 10.2391L12.8903 12.8575V18.154L16.1816 15.8499C16.3581 15.7261 16.6017 15.7688 16.7256 15.9453C16.8494 16.1219 16.8067 16.3654 16.6302 16.4893L12.8903 19.1077V21.2477C12.8903 21.4635 12.7154 21.6384 12.4997 21.6384C12.2839 21.6384 12.109 21.4635 12.109 21.2477V19.1077L8.36911 16.4893C8.19261 16.3654 8.14993 16.1219 8.27374 15.9453C8.44408 15.7396 8.65067 15.7447 8.81773 15.8499L12.1091 18.154V12.8575L8.36913 10.2391C8.19264 10.1152 8.14995 9.87171 8.27377 9.69513C8.43343 9.49406 8.65527 9.49149 8.81775 9.59976L12.1091 11.9038V4.84133C12.1091 4.62559 12.2839 4.4507 12.4996 4.4507Z" fill="#4B3E31"/>
</g>
<defs>
<clipPath id="clip0_1006_2973">
<rect width="25" height="25" fill="white" transform="translate(0 0.153809)"/>
</clipPath>
</defs>
</svg>
