<svg width="25" height="25" viewBox="0 0 25 25" fill="none" xmlns="http://www.w3.org/2000/svg">
<g clip-path="url(#clip0_1006_2954)">
<path d="M9.19771 19.4961H15.8023C16.2976 19.4961 16.7411 19.2401 16.9887 18.8112C17.2363 18.3824 17.2363 17.8703 16.9887 17.4414L15.4193 14.7231H9.58076L8.01138 17.4414C7.76377 17.8703 7.76377 18.3824 8.01138 18.8112C8.25899 19.2401 8.70244 19.4961 9.19771 19.4961ZM13.5835 17.5493C13.6146 17.2441 13.837 16.9865 14.1343 16.9112C14.4306 16.8361 14.7518 16.9605 14.9209 17.2148C15.0906 17.4701 15.0824 17.8106 14.9004 18.0574C14.7188 18.3037 14.3918 18.4103 14.0996 18.3218C13.7702 18.2221 13.5483 17.8924 13.5835 17.5493ZM10.2202 16.4951C10.2519 16.1899 10.4733 15.9326 10.771 15.8572C11.067 15.7822 11.3886 15.9062 11.5576 16.1606C11.7278 16.4168 11.7183 16.7554 11.5371 17.0032C11.3571 17.2495 11.0272 17.357 10.7363 17.2676C10.4072 17.1664 10.1849 16.8395 10.2202 16.4951Z" fill="#4B3E31"/>
<path d="M6.42061 17.5436C6.48213 17.2561 6.58926 16.9748 6.74277 16.7089L10.0451 10.9892C10.0926 10.9069 10.144 10.8271 10.1993 10.75V4.88638C9.89849 4.79526 9.67939 4.51606 9.67939 4.18555C9.67939 3.78105 10.0073 3.45312 10.4118 3.45312H14.5882C14.9927 3.45312 15.3207 3.78105 15.3207 4.18555C15.3207 4.51611 15.1016 4.79526 14.8008 4.88638V9.16338L20.8055 3.15864C18.515 1.11689 15.5935 0 12.5 0C9.16113 0 6.02207 1.30024 3.66113 3.66118C1.30024 6.02212 0 9.16113 0 12.5C0 15.5935 1.11689 18.515 3.15864 20.8055L6.42061 17.5436Z" fill="#4B3E31"/>
<path d="M21.8413 4.19434L14.9885 11.0472L18.2573 16.7088C18.7697 17.5963 18.7697 18.656 18.2573 19.5435C17.7449 20.431 16.8271 20.9608 15.8024 20.9608H9.1977C8.1729 20.9608 7.25517 20.431 6.74277 19.5435C6.71172 19.4897 6.68262 19.4353 6.65537 19.3803L4.19448 21.8412C6.48496 23.883 9.40644 24.9999 12.5 24.9999C15.8389 24.9999 18.9779 23.6997 21.3388 21.3388C23.6998 18.9778 25 15.8388 25 12.4999C25 9.4064 23.8831 6.48486 21.8413 4.19434Z" fill="#4B3E31"/>
<path d="M13.5198 11.4899C13.4014 11.356 13.3359 11.1834 13.3359 11.0046V4.91797H11.6641V11.0045C11.6641 11.1359 11.6281 11.2664 11.5609 11.3792C11.4887 11.5005 11.3848 11.5983 11.3137 11.7215L10.4265 13.2583H14.5735L13.6863 11.7216C13.6383 11.6385 13.5823 11.5606 13.5198 11.4899Z" fill="#4B3E31"/>
</g>
<defs>
<clipPath id="clip0_1006_2954">
<rect width="25" height="25" fill="white"/>
</clipPath>
</defs>
</svg>

