<svg width="50" height="50" viewBox="0 0 50 50" fill="none" xmlns="http://www.w3.org/2000/svg">
<g opacity="0.3" clip-path="url(#clip0_1134_4251)">
<path d="M19.1833 17.4469L20.3124 16.6943V20.7032C20.3045 21.237 20.2681 21.77 20.2033 22.3L18.8323 25.0412C18.7782 25.1497 18.7499 25.2694 18.7499 25.3907C18.7499 25.5119 18.7782 25.6316 18.8323 25.7401L20.3124 28.6999V36.3282H21.875V28.5157C21.875 28.3944 21.8468 28.2747 21.7926 28.1662L20.4048 25.3907L21.6278 22.9447C21.8026 22.2106 21.8857 21.4577 21.875 20.7032V15.2344C21.875 15.093 21.8366 14.9542 21.7639 14.8329C21.6913 14.7116 21.587 14.6123 21.4624 14.5456C21.3377 14.4788 21.1972 14.4472 21.056 14.4541C20.9147 14.4609 20.778 14.5059 20.6603 14.5844L18.5135 16.0157H13.5177L11.3708 14.5844C11.2532 14.5059 11.1164 14.4609 10.9752 14.454C10.8339 14.4472 10.6935 14.4788 10.5688 14.5455C10.4441 14.6123 10.3399 14.7116 10.2672 14.8329C10.1946 14.9542 10.1562 15.093 10.1562 15.2344V22.0291L8.72495 24.176C8.6715 24.2563 8.63336 24.3458 8.61245 24.44L8.00476 27.1744L9.52988 27.5131L10.1059 24.9214L11.5874 22.699C11.673 22.5707 11.7186 22.4199 11.7187 22.2657V16.6943L12.8478 17.4469C12.9762 17.5324 13.127 17.5781 13.2812 17.5782H18.7499C18.9042 17.5781 19.055 17.5324 19.1833 17.4469Z" fill="#4B3E31"/>
<path d="M1.5625 49.2188H15.625C15.8322 49.2188 16.0309 49.1364 16.1774 48.9899C16.3239 48.8434 16.4062 48.6447 16.4062 48.4375V34.375C16.4063 34.291 16.3928 34.2075 16.3662 34.1278L15.625 31.9046V30.4688C15.6246 30.0545 15.4598 29.6573 15.1669 29.3644C14.874 29.0714 14.4768 28.9067 14.0625 28.9062H3.125C2.71073 28.9067 2.31354 29.0714 2.0206 29.3644C1.72767 29.6573 1.56291 30.0545 1.5625 30.4688V31.9046L0.821305 34.1278C0.7947 34.2075 0.781173 34.291 0.78125 34.375V48.4375C0.78125 48.6447 0.86356 48.8434 1.01007 48.9899C1.15659 49.1364 1.3553 49.2188 1.5625 49.2188ZM3.125 30.4688H14.0625V31.25H3.125V30.4688ZM2.9069 32.8125H14.2806L14.5411 33.5938H2.64645L2.9069 32.8125ZM2.34375 35.1562H14.8438V47.6562H2.34375V35.1562Z" fill="#4B3E31"/>
<path d="M48.4375 31.1234V29.6875C48.4371 29.2732 48.2723 28.876 47.9794 28.5831C47.6865 28.2902 47.2893 28.1254 46.875 28.125H35.9375C35.5232 28.1254 35.126 28.2902 34.8331 28.5831C34.5402 28.876 34.3754 29.2732 34.375 29.6875V31.1234L33.6338 33.3466C33.6072 33.4263 33.5937 33.5097 33.5938 33.5938V48.4375C33.5938 48.6447 33.6761 48.8434 33.8226 48.9899C33.9691 49.1364 34.1678 49.2188 34.375 49.2188H48.4375C48.6447 49.2188 48.8434 49.1364 48.9899 48.9899C49.1364 48.8434 49.2188 48.6447 49.2188 48.4375V33.5938C49.2188 33.5097 49.2053 33.4263 49.1787 33.3466L48.4375 31.1234ZM35.9375 29.6875H46.875V30.4688H35.9375V29.6875ZM35.7194 32.0312H47.0931L47.3536 32.8125H35.4589L35.7194 32.0312ZM47.6562 47.6562H35.1563V34.375H47.6562V47.6562Z" fill="#4B3E31"/>
<path d="M10.1562 39.4531C9.5293 39.4111 8.9004 39.498 8.30838 39.7086C7.71636 39.9192 7.1738 40.2489 6.7142 40.6774L4.32015 39.1811C4.20188 39.1072 4.066 39.0664 3.92662 39.0628C3.78723 39.0591 3.64941 39.0929 3.52747 39.1605C3.40552 39.2281 3.30389 39.3271 3.23312 39.4472C3.16235 39.5674 3.12502 39.7043 3.125 39.8437V43.75C3.125 43.8894 3.16232 44.0263 3.23308 44.1465C3.30385 44.2666 3.40548 44.3656 3.52744 44.4332C3.64939 44.5008 3.78722 44.5346 3.92661 44.531C4.066 44.5273 4.20188 44.4864 4.32015 44.4126L6.7142 42.9163C7.1738 43.3448 7.71636 43.6745 8.30838 43.8851C8.9004 44.0956 9.5293 44.1826 10.1562 44.1406C12.3833 44.1406 14.0625 43.1331 14.0625 41.7968C14.0625 40.4605 12.3833 39.4531 10.1562 39.4531ZM4.6875 42.3404V41.2532L5.55725 41.7968L4.6875 42.3404ZM10.1562 42.5781C8.64375 42.5781 7.8125 41.9914 7.8125 41.7968C7.8125 41.6023 8.64375 41.0156 10.1562 41.0156C11.6687 41.0156 12.5 41.6023 12.5 41.7968C12.5 41.9914 11.6687 42.5781 10.1562 42.5781Z" fill="#4B3E31"/>
<path d="M37.6564 44.8521C37.7742 45.1543 37.9656 45.4222 38.2131 45.6318C38.4606 45.8414 38.7564 45.986 39.0739 46.0524C39.3913 46.1189 39.7203 46.1052 40.0311 46.0125C40.3419 45.9198 40.6247 45.7511 40.8538 45.5216C41.0671 45.3074 41.2277 45.0465 41.3229 44.7596C41.4181 44.4727 41.4453 44.1676 41.4024 43.8683L44.1723 41.0989C44.5776 41.1566 44.9908 41.0853 45.3533 40.8951C45.7159 40.7049 46.0094 40.4054 46.1923 40.0392C46.3752 39.6729 46.4382 39.2583 46.3724 38.8542C46.3065 38.4501 46.1152 38.077 45.8255 37.7877C45.6352 37.5975 45.4071 37.4492 45.1561 37.3524C45.0593 37.1014 44.911 36.8733 44.7208 36.683C44.3487 36.3278 43.8541 36.1296 43.3397 36.1296C42.8253 36.1296 42.3307 36.3278 41.9586 36.683C41.7452 36.8972 41.5846 37.1581 41.4894 37.4451C41.3942 37.7321 41.367 38.0373 41.41 38.3366L38.6402 41.1061C38.2349 41.0483 37.8217 41.1196 37.4591 41.3097C37.0966 41.4999 36.803 41.7993 36.6201 42.1655C36.4372 42.5318 36.3742 42.9464 36.44 43.3504C36.5059 43.7545 36.6972 44.1276 36.9869 44.4169C37.1772 44.6071 37.4053 44.7554 37.6564 44.8521ZM38.0916 42.7594C38.1269 42.724 38.1689 42.6959 38.2151 42.6769C38.2614 42.6579 38.3109 42.6484 38.3609 42.6488C38.4208 42.6487 38.4799 42.6619 38.5341 42.6873C38.6799 42.7563 38.8434 42.7786 39.0023 42.7511C39.1612 42.7237 39.3077 42.6478 39.4218 42.5339L42.8379 39.1183C42.952 39.0043 43.028 38.8577 43.0555 38.6988C43.083 38.5398 43.0605 38.3763 42.9913 38.2306C42.9512 38.1479 42.9419 38.0537 42.9647 37.9647C42.9876 37.8758 43.0413 37.7978 43.1162 37.7447C43.1912 37.6916 43.2825 37.6668 43.374 37.6746C43.4656 37.6825 43.5513 37.7226 43.6161 37.7877C43.6831 37.8563 43.7222 37.9474 43.7256 38.0433C43.7355 38.2362 43.8166 38.4187 43.9532 38.5553C44.0898 38.6919 44.2723 38.773 44.4653 38.783C44.5404 38.7864 44.613 38.8116 44.6741 38.8556C44.7352 38.8996 44.7822 38.9604 44.8093 39.0306C44.8364 39.1008 44.8425 39.1774 44.8267 39.2511C44.811 39.3247 44.7742 39.3921 44.7208 39.4452C44.6634 39.5011 44.5902 39.538 44.5112 39.5509C44.4321 39.5639 44.351 39.5523 44.2787 39.5177C44.133 39.4482 43.9694 39.4256 43.8104 39.453C43.6513 39.4804 43.5047 39.5564 43.3907 39.6706L39.9746 43.0867C39.8605 43.2007 39.7844 43.3472 39.757 43.5062C39.7295 43.6651 39.752 43.8287 39.8212 43.9744C39.8611 44.057 39.8705 44.1512 39.8475 44.2401C39.8246 44.329 39.7709 44.4069 39.696 44.4599C39.6211 44.513 39.5298 44.5378 39.4383 44.5299C39.3468 44.522 39.2611 44.482 39.1964 44.4169C39.1294 44.3483 39.0903 44.2571 39.0869 44.1613C39.077 43.9683 38.9959 43.7859 38.8593 43.6493C38.7226 43.5126 38.5402 43.4315 38.3472 43.4216C38.272 43.4182 38.1995 43.393 38.1384 43.349C38.0773 43.305 38.0303 43.2442 38.0032 43.174C37.9761 43.1037 37.97 43.0271 37.9857 42.9535C38.0014 42.8799 38.0382 42.8124 38.0916 42.7594Z" fill="#4B3E31"/>
<path d="M22.6562 38.2813C22.5111 38.2812 22.3689 38.3216 22.2454 38.3979C22.122 38.4741 22.0222 38.5833 21.9573 38.7131L21.2928 40.0429L19.963 40.7074C19.7777 40.8001 19.6368 40.9625 19.5712 41.1591L18.968 42.9688H18.7499C18.5694 42.9687 18.3944 43.0313 18.2547 43.1458C18.115 43.2602 18.0194 43.4196 17.9839 43.5966L17.2027 47.5029C17.18 47.6162 17.1828 47.7332 17.2107 47.8454C17.2387 47.9575 17.2912 48.0621 17.3645 48.1515C17.4378 48.2409 17.53 48.3129 17.6345 48.3624C17.7389 48.4118 17.8531 48.4375 17.9687 48.4375H32.0312C32.1468 48.4375 32.2609 48.4118 32.3654 48.3624C32.4699 48.3129 32.5621 48.2409 32.6354 48.1515C32.7086 48.0621 32.7612 47.9575 32.7891 47.8454C32.8171 47.7332 32.8199 47.6162 32.7972 47.5029L32.0159 43.5966C31.9805 43.4196 31.8848 43.2602 31.7452 43.1458C31.6055 43.0313 31.4305 42.9687 31.2499 42.9688H31.0319L30.4286 41.1591C30.3901 41.0441 30.3255 40.9396 30.2398 40.8539L28.6773 39.2914C28.5308 39.1449 28.3321 39.0625 28.1249 39.0625H26.7467L25.3494 38.3636C25.2409 38.3094 25.1212 38.2812 24.9999 38.2813H22.6562ZM30.6095 44.5312L31.0783 46.875H18.9216L19.3904 44.5312H30.6095ZM26.213 40.5426C26.3215 40.5968 26.4411 40.625 26.5624 40.625H27.8015L29.0046 41.8281L29.3847 42.9688H20.6152L20.9514 41.9602L22.2244 41.3239C22.3756 41.2482 22.4982 41.1256 22.5738 40.9744L23.1391 39.8438H24.8157L26.213 40.5426Z" fill="#4B3E31"/>
<path d="M43.3563 17.8658C43.4944 17.7869 43.6051 17.6677 43.6737 17.5242C43.7422 17.3807 43.7654 17.2198 43.74 17.0628L43.0446 12.7727C42.9872 12.5072 42.8617 12.2611 42.6806 12.0586C42.4994 11.8561 42.2688 11.7042 42.0112 11.6177L38.919 10.5869C38.8393 10.5603 38.7558 10.5468 38.6718 10.5469H31.6406C31.5566 10.5468 31.4731 10.5603 31.3934 10.5869L28.3016 11.6177C28.0384 11.7077 27.8036 11.8654 27.6208 12.075C27.438 12.2846 27.3136 12.5387 27.2602 12.8117L26.5724 17.0628C26.547 17.2198 26.5702 17.3807 26.6387 17.5242C26.7073 17.6677 26.818 17.7869 26.9561 17.8658L29.2968 19.2032V21.7247L27.79 25.491C27.7533 25.5833 27.7344 25.6818 27.7343 25.7812V35.9375H29.2968V25.9315L30.8036 22.1653C30.8404 22.0729 30.8593 21.9744 30.8593 21.875V18.75C30.8593 18.6123 30.8229 18.477 30.7538 18.3579C30.6847 18.2388 30.5852 18.14 30.4656 18.0717L28.2012 16.7778L28.7956 13.1001L31.7672 12.1094H38.5494L41.5096 13.0611L42.1111 16.7778L39.8467 18.0717C39.7271 18.14 39.6277 18.2388 39.5586 18.3579C39.4895 18.477 39.4531 18.6123 39.4531 18.75V21.875C39.4531 22.0166 39.4916 22.1556 39.5645 22.2771L40.6711 24.1215L41.4249 27.5131L42.95 27.1744L42.1688 23.6587C42.1505 23.5767 42.1192 23.4982 42.0761 23.4261L41.0156 21.6587V19.2032L43.3563 17.8658Z" fill="#4B3E31"/>
<path d="M29.6875 3.30003C29.7007 2.73262 29.5142 2.1786 29.1607 1.73459C28.8072 1.29057 28.309 0.984749 27.7531 0.870449C27.2783 0.756014 26.7837 0.751121 26.3067 0.85614C25.8297 0.96116 25.3829 1.17334 25 1.47661C24.6173 1.17328 24.1705 0.961062 23.6936 0.856039C23.2167 0.751017 22.7221 0.755944 22.2473 0.870449C21.6914 0.98473 21.1932 1.29054 20.8396 1.73454C20.486 2.17855 20.2995 2.73258 20.3125 3.30003C20.3125 5.63729 23.3078 7.70181 24.5957 8.48077C24.7176 8.55463 24.8575 8.59369 25 8.59369C25.1426 8.59369 25.2824 8.55463 25.4044 8.48077C26.6922 7.70181 29.6875 5.63729 29.6875 3.30003ZM25 6.89004C23.3857 5.83757 21.875 4.38989 21.875 3.30003C21.8656 3.08299 21.9364 2.87008 22.0738 2.70187C22.2113 2.53366 22.4059 2.42191 22.6204 2.38793C22.7414 2.35855 22.8656 2.34395 22.9901 2.34445C23.2533 2.33436 23.5144 2.39504 23.7462 2.52017C23.978 2.64529 24.172 2.83029 24.308 3.05589C24.3742 3.18222 24.4736 3.28804 24.5956 3.36187C24.7176 3.4357 24.8574 3.47474 25 3.47474C25.1426 3.47474 25.2825 3.4357 25.4045 3.36187C25.5264 3.28804 25.6259 3.18222 25.692 3.05589C25.8662 2.78006 26.1235 2.56672 26.4269 2.44666C26.7302 2.32659 27.0639 2.30603 27.3796 2.38792C27.5942 2.42189 27.7888 2.53364 27.9262 2.70185C28.0637 2.87007 28.1345 3.08299 28.125 3.30003C28.125 4.38989 26.6144 5.83757 25 6.89004Z" fill="#4B3E31"/>
<path d="M14.0625 21.0938C14.494 21.0938 14.8438 20.744 14.8438 20.3125C14.8438 19.881 14.494 19.5312 14.0625 19.5312C13.631 19.5312 13.2812 19.881 13.2812 20.3125C13.2812 20.744 13.631 21.0938 14.0625 21.0938Z" fill="#4B3E31"/>
<path d="M17.9688 21.0938C18.4002 21.0938 18.75 20.744 18.75 20.3125C18.75 19.881 18.4002 19.5312 17.9688 19.5312C17.5373 19.5312 17.1875 19.881 17.1875 20.3125C17.1875 20.744 17.5373 21.0938 17.9688 21.0938Z" fill="#4B3E31"/>
<path d="M32.8125 17.1875C33.244 17.1875 33.5938 16.8377 33.5938 16.4062C33.5938 15.9748 33.244 15.625 32.8125 15.625C32.381 15.625 32.0312 15.9748 32.0312 16.4062C32.0312 16.8377 32.381 17.1875 32.8125 17.1875Z" fill="#4B3E31"/>
<path d="M37.5 17.1875C37.9315 17.1875 38.2812 16.8377 38.2812 16.4062C38.2812 15.9748 37.9315 15.625 37.5 15.625C37.0685 15.625 36.7188 15.9748 36.7188 16.4062C36.7188 16.8377 37.0685 17.1875 37.5 17.1875Z" fill="#4B3E31"/>
<path d="M35.1562 20.3125C35.6956 20.3125 36.1328 19.9627 36.1328 19.5312C36.1328 19.0998 35.6956 18.75 35.1562 18.75C34.6169 18.75 34.1797 19.0998 34.1797 19.5312C34.1797 19.9627 34.6169 20.3125 35.1562 20.3125Z" fill="#4B3E31"/>
</g>
<defs>
<clipPath id="clip0_1134_4251">
<rect width="50" height="50" fill="white"/>
</clipPath>
</defs>
</svg>
