<svg width="25" height="26" viewBox="0 0 25 26" fill="none" xmlns="http://www.w3.org/2000/svg">
<g clip-path="url(#clip0_1006_2977)">
<path d="M22.6177 11.5516C21.6604 10.2307 20.8333 9.09843 20.8333 7.52239V6.38489C21.1488 6.27472 21.4203 6.06583 21.6077 5.7892C21.7951 5.51256 21.8883 5.1829 21.8736 4.8491C21.8588 4.51531 21.7369 4.19514 21.5259 3.93609C21.3149 3.67703 21.026 3.49288 20.7021 3.41093C20.4845 2.50444 19.9681 1.6976 19.236 1.12043C18.504 0.543262 17.5989 0.229387 16.6667 0.229387C15.7344 0.229387 14.8294 0.543262 14.0973 1.12043C13.3652 1.6976 12.8488 2.50444 12.6313 3.41093C12.3073 3.49288 12.0184 3.67703 11.8074 3.93609C11.5964 4.19514 11.4745 4.51531 11.4598 4.8491C11.445 5.1829 11.5383 5.51256 11.7256 5.7892C11.913 6.06583 12.1846 6.27472 12.5 6.38489V7.52239C12.5 9.09843 11.6729 10.2307 10.7156 11.5516C9.27848 13.1799 8.43832 15.2489 8.33333 17.4182C8.38055 18.878 8.69844 20.3162 9.27083 21.6599C9.70043 22.7162 10.4355 23.6203 11.3819 24.2564C12.3283 24.8926 13.443 25.2318 14.5833 25.2307H18.75C19.8902 25.2319 21.0048 24.8928 21.9512 24.2569C22.8976 23.6209 23.6327 22.7171 24.0625 21.6609C24.6348 20.3169 24.9527 18.8783 25 17.4182C24.895 15.2489 24.0549 13.1799 22.6177 11.5516ZM15.625 6.48072H17.7083V7.52239C17.7084 8.60133 17.9423 9.66745 18.3938 10.6474H14.9396C15.3911 9.66745 15.6249 8.60133 15.625 7.52239V6.48072ZM21.1531 20.5151C20.9564 20.9893 20.6226 21.394 20.1944 21.6774C19.7663 21.9607 19.2634 22.1099 18.75 22.1057H14.5833C14.0712 22.1086 13.5697 21.9588 13.143 21.6755C12.7163 21.3922 12.3837 20.9882 12.1875 20.5151C11.7613 19.5347 11.5143 18.4858 11.4583 17.4182C11.5452 16.07 12.0751 14.7883 12.9656 13.7724H20.3677C21.2583 14.7883 21.7882 16.07 21.875 17.4182C21.8223 18.4855 21.5778 19.5345 21.1531 20.5151ZM8.33333 23.6682C8.33333 24.0826 8.16871 24.4801 7.87569 24.7731C7.58266 25.0661 7.18523 25.2307 6.77083 25.2307H6.25C5.10967 25.2318 3.99496 24.8926 3.04855 24.2564C2.10214 23.6203 1.36709 22.7162 0.9375 21.6599C0.365104 20.3162 0.0472148 18.878 0 17.4182C0.104987 15.2489 0.945147 13.1799 2.38229 11.5516C3.33958 10.2307 4.16667 9.09843 4.16667 7.52239V6.39218C3.85148 6.28127 3.58015 6.07225 3.3925 5.79579C3.20485 5.51934 3.11076 5.19001 3.12404 4.85614C3.13733 4.52228 3.25728 4.20146 3.46631 3.94079C3.67533 3.68012 3.96242 3.49332 4.28542 3.4078C4.42845 2.82171 4.69706 2.27366 5.07266 1.80155C5.44827 1.32944 5.92192 0.944527 6.46087 0.673417C6.99982 0.402307 7.59122 0.251468 8.19418 0.231327C8.79714 0.211185 9.39728 0.322222 9.95312 0.556761C10.2094 0.663827 10.4324 0.837247 10.5994 1.05917C10.7663 1.28109 10.8711 1.54349 10.9029 1.81937C10.9347 2.09524 10.8925 2.37461 10.7805 2.62872C10.6685 2.88282 10.4907 3.10249 10.2656 3.2651C9.98799 3.46595 9.76233 3.73019 9.60742 4.03584C9.45251 4.3415 9.37283 4.67972 9.375 5.02239C9.34854 5.41847 9.17231 5.78964 8.8821 6.0605C8.59189 6.33136 8.20947 6.4816 7.8125 6.48072H7.29167V7.52239C7.29156 8.60133 7.05773 9.66745 6.60625 10.6474H6.77083C7.18523 10.6474 7.58266 10.812 7.87569 11.105C8.16871 11.3981 8.33333 11.7955 8.33333 12.2099C8.33333 12.6243 8.16871 13.0217 7.87569 13.3147C7.58266 13.6078 7.18523 13.7724 6.77083 13.7724H4.63229C3.74172 14.7883 3.21182 16.07 3.125 17.4182C3.17866 18.4854 3.42315 19.5342 3.84687 20.5151C4.04352 20.9894 4.37729 21.3941 4.80544 21.6775C5.23358 21.9609 5.73658 22.11 6.25 22.1057H6.77083C7.18523 22.1057 7.58266 22.2703 7.87569 22.5634C8.16871 22.8564 8.33333 23.2538 8.33333 23.6682ZM16.6667 19.5016C16.6667 19.8106 16.575 20.1127 16.4033 20.3696C16.2316 20.6266 15.9876 20.8269 15.7021 20.9451C15.4166 21.0634 15.1024 21.0943 14.7993 21.034C14.4962 20.9737 14.2178 20.8249 13.9993 20.6064C13.7808 20.3879 13.632 20.1095 13.5717 19.8064C13.5114 19.5033 13.5423 19.1891 13.6606 18.9036C13.7789 18.6181 13.9791 18.3741 14.2361 18.2024C14.493 18.0307 14.7951 17.9391 15.1042 17.9391C15.5186 17.9391 15.916 18.1037 16.209 18.3967C16.502 18.6897 16.6667 19.0872 16.6667 19.5016ZM19.7917 16.3766C19.7917 16.6856 19.7 16.9877 19.5283 17.2446C19.3566 17.5016 19.1126 17.7019 18.8271 17.8201C18.5416 17.9384 18.2274 17.9693 17.9243 17.909C17.6212 17.8487 17.3428 17.6999 17.1243 17.4814C16.9058 17.2629 16.757 16.9845 16.6967 16.6814C16.6364 16.3783 16.6673 16.0641 16.7856 15.7786C16.9039 15.4931 17.1041 15.2491 17.3611 15.0774C17.618 14.9057 17.9201 14.8141 18.2292 14.8141C18.6436 14.8141 19.041 14.9787 19.334 15.2717C19.627 15.5647 19.7917 15.9622 19.7917 16.3766Z" fill="#4B3E31"/>
</g>
<defs>
<clipPath id="clip0_1006_2977">
<rect width="25" height="25" fill="white" transform="translate(0 0.230957)"/>
</clipPath>
</defs>
</svg>
