<svg width="61" height="60" viewBox="0 0 61 60" fill="none" xmlns="http://www.w3.org/2000/svg">
<path d="M39.875 3.75H35.8025C35.03 1.5675 32.945 0 30.5 0C28.055 0 25.97 1.5675 25.1938 3.75H21.125C20.09 3.75 19.25 4.59 19.25 5.625V13.125C19.25 14.16 20.09 15 21.125 15H39.875C40.91 15 41.75 14.16 41.75 13.125V5.625C41.75 4.59 40.91 3.75 39.875 3.75Z" fill="#4B3E31"/>
<path d="M49.25 7.5H45.5V13.125C45.5 16.2262 42.9762 18.75 39.875 18.75H21.125C18.0238 18.75 15.5 16.2262 15.5 13.125V7.5H11.75C9.68375 7.5 8 9.18375 8 11.25V56.25C8 58.3537 9.64625 60 11.75 60H49.25C51.3537 60 53 58.3537 53 56.25V11.25C53 9.14625 51.3537 7.5 49.25 7.5ZM29.9525 40.7025L22.4525 48.2025C22.085 48.5662 21.605 48.75 21.125 48.75C20.645 48.75 20.165 48.5662 19.7975 48.2025L16.0475 44.4525C15.3162 43.7212 15.3162 42.5325 16.0475 41.8013C16.7787 41.07 17.9675 41.07 18.6988 41.8013L21.125 44.2238L27.2975 38.0513C28.0287 37.32 29.2175 37.32 29.9488 38.0513C30.68 38.7825 30.6838 39.9675 29.9525 40.7025ZM29.9525 25.7025L22.4525 33.2025C22.085 33.5662 21.605 33.75 21.125 33.75C20.645 33.75 20.165 33.5662 19.7975 33.2025L16.0475 29.4525C15.3162 28.7213 15.3162 27.5325 16.0475 26.8012C16.7787 26.07 17.9675 26.07 18.6988 26.8012L21.125 29.2238L27.2975 23.0512C28.0287 22.32 29.2175 22.32 29.9488 23.0512C30.68 23.7825 30.6838 24.9675 29.9525 25.7025ZM43.625 45H36.125C35.09 45 34.25 44.16 34.25 43.125C34.25 42.09 35.09 41.25 36.125 41.25H43.625C44.66 41.25 45.5 42.09 45.5 43.125C45.5 44.16 44.66 45 43.625 45ZM43.625 30H36.125C35.09 30 34.25 29.16 34.25 28.125C34.25 27.09 35.09 26.25 36.125 26.25H43.625C44.66 26.25 45.5 27.09 45.5 28.125C45.5 29.16 44.66 30 43.625 30Z" fill="#4B3E31"/>
</svg>
