<svg width="22" height="22" viewBox="0 0 22 22" fill="none" xmlns="http://www.w3.org/2000/svg">
<path d="M16.6092 21.2682C16.3245 21.2684 16.0441 21.1989 15.7925 21.0657L11.1177 18.6087C11.0815 18.5894 11.041 18.5792 11 18.5792C10.9589 18.5792 10.9184 18.5894 10.8822 18.6087L6.20821 21.0657C5.91857 21.2182 5.59205 21.2865 5.26559 21.263C4.93914 21.2394 4.62579 21.125 4.36099 20.9326C4.09619 20.7403 3.89052 20.4776 3.76725 20.1744C3.64398 19.8712 3.60803 19.5396 3.66346 19.217L4.55596 14.0127C4.56282 13.972 4.55957 13.9301 4.54649 13.8909C4.53342 13.8517 4.51092 13.8163 4.48096 13.7877L0.702463 10.1C0.467865 9.87144 0.30197 9.58174 0.223576 9.26373C0.145181 8.94572 0.157421 8.61211 0.258909 8.3007C0.360397 7.98929 0.547075 7.71252 0.797792 7.50177C1.04851 7.29101 1.35324 7.15469 1.67746 7.10825L6.89971 6.35C6.94035 6.34409 6.97893 6.32836 7.01212 6.30419C7.04532 6.28001 7.07212 6.24811 7.09021 6.21125L9.42496 1.475C9.56958 1.18139 9.79351 0.934135 10.0714 0.761235C10.3493 0.588335 10.67 0.496696 10.9973 0.496696C11.3246 0.496696 11.6454 0.588335 11.9233 0.761235C12.2012 0.934135 12.4251 1.18139 12.5697 1.475L14.906 6.20975C14.9242 6.2465 14.9511 6.2783 14.9842 6.30245C15.0174 6.32661 15.0559 6.3424 15.0965 6.3485L20.3232 7.1075C20.6473 7.15421 20.9518 7.29067 21.2023 7.50146C21.4529 7.71225 21.6394 7.98894 21.7409 8.30024C21.8423 8.61154 21.8546 8.94502 21.7764 9.26295C21.6982 9.58087 21.5325 9.87057 21.2982 10.0992L17.516 13.7847C17.4861 13.8133 17.4637 13.8488 17.4506 13.888C17.4376 13.9272 17.4342 13.969 17.441 14.0097L18.3335 19.214C18.3764 19.4655 18.364 19.7233 18.2972 19.9694C18.2304 20.2156 18.1107 20.4443 17.9465 20.6395C17.7823 20.8348 17.5776 20.9919 17.3465 21.1C17.1154 21.208 16.8636 21.2644 16.6085 21.2652L16.6092 21.2682ZM11 17.0787C11.2844 17.0787 11.5645 17.1482 11.816 17.2812L16.49 19.7375C16.5313 19.7611 16.5788 19.772 16.6263 19.7686C16.6738 19.7653 16.7193 19.7479 16.757 19.7187C16.7963 19.6918 16.8268 19.6539 16.8448 19.6098C16.8628 19.5657 16.8674 19.5172 16.8582 19.4705L15.965 14.2655C15.9172 13.9854 15.9382 13.6978 16.026 13.4276C16.1137 13.1573 16.2657 12.9124 16.469 12.7137L20.2512 9.0275C20.285 8.99443 20.3088 8.95259 20.3201 8.90668C20.3313 8.86078 20.3295 8.81265 20.3148 8.76772C20.3002 8.72279 20.2732 8.68286 20.2371 8.65243C20.2009 8.622 20.157 8.60228 20.1102 8.5955L14.8842 7.83575C14.6029 7.79501 14.3356 7.68638 14.1057 7.51926C13.8757 7.35213 13.6898 7.13152 13.5642 6.8765L11.225 2.141C11.204 2.09862 11.1716 2.06294 11.1315 2.038C11.0913 2.01305 11.045 1.99984 10.9977 1.99984C10.9504 1.99984 10.9041 2.01305 10.864 2.038C10.8238 2.06294 10.7914 2.09862 10.7705 2.141L8.43571 6.875C8.31001 7.13012 8.12405 7.35078 7.89394 7.51792C7.66382 7.68505 7.39645 7.79362 7.11496 7.83425L1.88971 8.5955C1.84285 8.60213 1.79878 8.62179 1.76254 8.65223C1.72629 8.68268 1.69933 8.72269 1.68471 8.76771C1.6701 8.81273 1.66842 8.86095 1.67986 8.90688C1.69131 8.95281 1.71543 8.9946 1.74946 9.0275L5.53096 12.7137C5.73418 12.9124 5.88619 13.1573 5.97397 13.4276C6.06175 13.6978 6.08268 13.9854 6.03496 14.2655L5.14171 19.4705C5.13361 19.5173 5.1388 19.5654 5.15668 19.6093C5.17457 19.6533 5.20444 19.6913 5.24289 19.7192C5.28134 19.747 5.32682 19.7634 5.37417 19.7667C5.42152 19.7699 5.46883 19.7598 5.51071 19.7375L10.184 17.2805C10.4356 17.148 10.7156 17.0788 11 17.0787Z" fill="#4B3E31"/>
</svg>
