<svg width="45" height="45" viewBox="0 0 45 45" fill="none" xmlns="http://www.w3.org/2000/svg">
<g clip-path="url(#clip0_499_10089)">
<path d="M22.5 44.4727C34.6352 44.4727 44.4727 34.6352 44.4727 22.5C44.4727 10.3648 34.6352 0.527344 22.5 0.527344C10.3648 0.527344 0.527344 10.3648 0.527344 22.5C0.527344 34.6352 10.3648 44.4727 22.5 44.4727Z" fill="#1877F2"/>
<path opacity="0.49" d="M42.5117 31.5853C42.5656 31.3677 42.6558 31.1607 42.7785 30.9731C43.9002 28.2892 44.4761 25.4088 44.4727 22.5C44.4727 22.3428 44.47 22.1862 44.4667 22.0298L30.2353 7.79844C28.8767 7.6543 27.5112 7.5845 26.145 7.58935C22.0973 7.58935 19.3271 10.0591 19.3271 14.5968V18.5098H14.7646V23.8271L19.3271 28.3887V37.4106L26.0947 44.1782C29.654 43.5863 33.0131 42.1281 35.876 39.9321C38.7389 37.7361 41.0177 34.8696 42.5117 31.5853Z" fill="url(#paint0_linear_499_10089)"/>
<path d="M24.8155 37.4106V23.8271H29.3946L30.0806 18.5098H24.8155V15.1234C24.8155 13.5875 25.2418 12.541 27.4441 12.541H30.2352V7.79835C28.8766 7.6543 27.5111 7.58453 26.1449 7.58934C22.0972 7.58934 19.327 10.0591 19.327 14.5968V18.5098H14.7646V23.8271H19.3271V37.4106H24.8155Z" fill="white"/>
</g>
<defs>
<linearGradient id="paint0_linear_499_10089" x1="16.393" y1="14.2164" x2="49.7795" y2="47.6029" gradientUnits="userSpaceOnUse">
<stop stop-color="#1D1D1B"/>
<stop offset="0.369" stop-color="#1D1D1B" stop-opacity="0.856"/>
<stop offset="0.75" stop-color="#1D1D1B" stop-opacity="0.429"/>
<stop offset="1" stop-color="#1D1D1B" stop-opacity="0"/>
</linearGradient>
<clipPath id="clip0_499_10089">
<rect width="45" height="45" fill="white"/>
</clipPath>
</defs>
</svg>
