<svg width="45" height="45" viewBox="0 0 45 45" fill="none" xmlns="http://www.w3.org/2000/svg">
<g clip-path="url(#clip0_499_10093)">
<path d="M22.5 44.4727C34.6352 44.4727 44.4727 34.6352 44.4727 22.5C44.4727 10.3648 34.6352 0.527344 22.5 0.527344C10.3648 0.527344 0.527344 10.3648 0.527344 22.5C0.527344 34.6352 10.3648 44.4727 22.5 44.4727Z" fill="#27A737"/>
<path opacity="0.49" fill-rule="evenodd" clip-rule="evenodd" d="M32.6925 12.4582C31.3911 11.1644 29.8441 10.144 28.1424 9.45708C26.4407 8.77013 24.6188 8.43052 22.7839 8.45823C15.1193 8.45823 8.87417 14.5636 8.87417 22.1718C8.87417 24.7078 9.63117 27.1499 10.8612 29.2164L8.3064 36.5428L14.8771 43.1135C17.3173 44.0152 19.8985 44.4754 22.5 44.4726C34.0715 44.4726 43.5537 35.5278 44.4096 24.1753L32.6925 12.4582ZM16.4444 31.7525L11.9021 33.1611L13.3215 28.8404C11.8475 26.894 11.05 24.5192 11.0504 22.0776C11.0504 15.6904 16.3495 10.5244 22.7838 10.5244C29.2181 10.5244 34.5172 15.6904 34.6119 22.0776C34.6129 24.414 33.8927 26.6938 32.5495 28.6056L29.6026 25.6587C29.5637 25.6202 29.5185 25.5885 29.469 25.565L27.3692 24.608L18.8972 16.1303C18.8175 16.0542 18.7133 16.009 18.6032 16.0029L17.6911 15.9501C17.4044 15.9344 17.1225 16.0287 16.9029 16.2138C16.4601 16.5924 15.7515 17.3409 15.5303 18.3007C15.2026 19.7359 15.7074 21.4969 17.0092 23.2577C17.574 24.0317 18.1981 24.7607 18.8758 25.4382L26.501 33.0644C24.8313 33.5985 23.0645 33.7578 21.3262 33.5311C19.588 33.3043 17.9211 32.697 16.4444 31.7525Z" fill="url(#paint0_linear_499_10093)"/>
<path d="M22.7839 8.45825C15.1193 8.45825 8.87417 14.5636 8.87417 22.1718C8.87417 24.7078 9.63117 27.15 10.8612 29.2164L8.3064 36.5428L16.0656 34.1007C18.0528 35.134 20.3236 35.7914 22.7839 35.7914C30.4485 35.7914 36.6937 29.6861 36.6937 22.0779C36.6937 14.4696 30.4485 8.3643 22.7839 8.45825ZM22.8786 33.6311C20.5966 33.6446 18.3603 32.9917 16.4441 31.7525L11.9021 33.1611L13.3215 28.8404C11.8475 26.894 11.05 24.5192 11.0504 22.0776C11.0504 15.6904 16.3495 10.5244 22.7838 10.5244C29.2181 10.5244 34.5172 15.6904 34.6119 22.0776C34.612 28.465 29.313 33.6311 22.8786 33.6311Z" fill="white"/>
<path fill-rule="evenodd" clip-rule="evenodd" d="M17.691 15.9501L18.6032 16.0028C18.6914 16.0083 18.7764 16.0385 18.8484 16.0898C18.9204 16.1412 18.9766 16.2117 19.0105 16.2934L20.3388 19.3927C20.3727 19.4742 20.3831 19.5635 20.3691 19.6506C20.355 19.7377 20.317 19.8192 20.2592 19.8859L19.0991 21.2154C19.0537 21.2681 19.0252 21.3332 19.0174 21.4023C19.0095 21.4714 19.0227 21.5413 19.0551 21.6028C20.5872 24.5262 23.3679 25.6885 24.2003 25.9791C24.269 26.0035 24.3437 26.0056 24.4136 25.9851C24.4836 25.9646 24.5453 25.9225 24.5899 25.8648L25.8028 24.2975C25.8691 24.213 25.9619 24.1531 26.0663 24.1276C26.1707 24.1021 26.2806 24.1124 26.3784 24.1569L29.4691 25.5657C29.5662 25.6113 29.6452 25.6881 29.6934 25.7839C29.7415 25.8797 29.7561 25.9889 29.7348 26.094L29.5928 26.7715C29.5124 27.1519 29.3575 27.5127 29.1371 27.833C28.9168 28.1534 28.6352 28.427 28.3088 28.6382C27.4675 29.1665 26.387 29.4307 25.0056 29.0433C20.7283 27.8369 18.3107 25.0193 17.0088 23.2582C15.707 21.4972 15.2023 19.7362 15.53 18.3012C15.7514 17.3414 16.4598 16.593 16.9026 16.2143C17.1221 16.0293 17.4041 15.9349 17.6908 15.9507L17.691 15.9501Z" fill="white"/>
</g>
<defs>
<linearGradient id="paint0_linear_499_10093" x1="10.7075" y1="14.7085" x2="36.0364" y2="40.0375" gradientUnits="userSpaceOnUse">
<stop stop-color="#1D1D1B"/>
<stop offset="0.369" stop-color="#1D1D1B" stop-opacity="0.856"/>
<stop offset="0.75" stop-color="#1D1D1B" stop-opacity="0.429"/>
<stop offset="1" stop-color="#1D1D1B" stop-opacity="0"/>
</linearGradient>
<clipPath id="clip0_499_10093">
<rect width="45" height="45" fill="white"/>
</clipPath>
</defs>
</svg>
